<?xml version="1.0" encoding="utf-8" standalone="no"?>
<!DOCTYPE svg PUBLIC "-//W3C//DTD SVG 1.1//EN"
  "http://www.w3.org/Graphics/SVG/1.1/DTD/svg11.dtd">
<svg xmlns:xlink="http://www.w3.org/1999/xlink" width="866.062375pt" height="383.732213pt" viewBox="0 0 866.062375 383.732213" xmlns="http://www.w3.org/2000/svg" version="1.1">
 <metadata>
  <rdf:RDF xmlns:dc="http://purl.org/dc/elements/1.1/" xmlns:cc="http://creativecommons.org/ns#" xmlns:rdf="http://www.w3.org/1999/02/22-rdf-syntax-ns#">
   <cc:Work>
    <dc:type rdf:resource="http://purl.org/dc/dcmitype/StillImage"/>
    <dc:date>2026-04-20T11:48:52.028067</dc:date>
    <dc:format>image/svg+xml</dc:format>
    <dc:creator>
     <cc:Agent>
      <dc:title>Matplotlib v3.9.4, https://matplotlib.org/</dc:title>
     </cc:Agent>
    </dc:creator>
   </cc:Work>
  </rdf:RDF>
 </metadata>
 <defs>
  <style type="text/css">*{stroke-linejoin: round; stroke-linecap: butt}</style>
 </defs>
 <g id="figure_1">
  <g id="patch_1">
   <path d="M 0 383.732213 
L 866.062375 383.732213 
L 866.062375 0 
L 0 0 
z
" style="fill: #ffffff"/>
  </g>
  <g id="axes_1">
   <g id="patch_2">
    <path d="M 94.772813 341.997994 
L 708.572813 341.997994 
L 708.572813 22.663594 
L 94.772813 22.663594 
z
" style="fill: #ffffff"/>
   </g>
   <g id="matplotlib.axis_1">
    <g id="xtick_1">
     <g id="line2d_1">
      <path d="M 94.772813 341.997994 
L 94.772813 22.663594 
" clip-path="url(#p99b48c9f24)" style="fill: none; stroke: #e6e6e6; stroke-width: 0.8; stroke-linecap: round"/>
     </g>
     <g id="text_1">
      <!-- 0.00 -->
      <g style="fill: #333333" transform="translate(84.069297 359.371587) scale(0.11 -0.11)">
       <defs>
        <path id="ArialMT-30" d="M 266 2259 
Q 266 3072 433 3567 
Q 600 4063 929 4331 
Q 1259 4600 1759 4600 
Q 2128 4600 2406 4451 
Q 2684 4303 2865 4023 
Q 3047 3744 3150 3342 
Q 3253 2941 3253 2259 
Q 3253 1453 3087 958 
Q 2922 463 2592 192 
Q 2263 -78 1759 -78 
Q 1097 -78 719 397 
Q 266 969 266 2259 
z
M 844 2259 
Q 844 1131 1108 757 
Q 1372 384 1759 384 
Q 2147 384 2411 759 
Q 2675 1134 2675 2259 
Q 2675 3391 2411 3762 
Q 2147 4134 1753 4134 
Q 1366 4134 1134 3806 
Q 844 3388 844 2259 
z
" transform="scale(0.015625)"/>
        <path id="ArialMT-2e" d="M 581 0 
L 581 641 
L 1222 641 
L 1222 0 
L 581 0 
z
" transform="scale(0.015625)"/>
       </defs>
       <use xlink:href="#ArialMT-30"/>
       <use xlink:href="#ArialMT-2e" x="55.615234"/>
       <use xlink:href="#ArialMT-30" x="83.398438"/>
       <use xlink:href="#ArialMT-30" x="139.013672"/>
      </g>
     </g>
    </g>
    <g id="xtick_2">
     <g id="line2d_2">
      <path d="M 174.16439 341.997994 
L 174.16439 22.663594 
" clip-path="url(#p99b48c9f24)" style="fill: none; stroke: #e6e6e6; stroke-width: 0.8; stroke-linecap: round"/>
     </g>
     <g id="text_2">
      <!-- 0.01 -->
      <g style="fill: #333333" transform="translate(163.460875 359.371587) scale(0.11 -0.11)">
       <defs>
        <path id="ArialMT-31" d="M 2384 0 
L 1822 0 
L 1822 3584 
Q 1619 3391 1289 3197 
Q 959 3003 697 2906 
L 697 3450 
Q 1169 3672 1522 3987 
Q 1875 4303 2022 4600 
L 2384 4600 
L 2384 0 
z
" transform="scale(0.015625)"/>
       </defs>
       <use xlink:href="#ArialMT-30"/>
       <use xlink:href="#ArialMT-2e" x="55.615234"/>
       <use xlink:href="#ArialMT-30" x="83.398438"/>
       <use xlink:href="#ArialMT-31" x="139.013672"/>
      </g>
     </g>
    </g>
    <g id="xtick_3">
     <g id="line2d_3">
      <path d="M 253.555968 341.997994 
L 253.555968 22.663594 
" clip-path="url(#p99b48c9f24)" style="fill: none; stroke: #e6e6e6; stroke-width: 0.8; stroke-linecap: round"/>
     </g>
     <g id="text_3">
      <!-- 0.02 -->
      <g style="fill: #333333" transform="translate(242.852452 359.371587) scale(0.11 -0.11)">
       <defs>
        <path id="ArialMT-32" d="M 3222 541 
L 3222 0 
L 194 0 
Q 188 203 259 391 
Q 375 700 629 1000 
Q 884 1300 1366 1694 
Q 2113 2306 2375 2664 
Q 2638 3022 2638 3341 
Q 2638 3675 2398 3904 
Q 2159 4134 1775 4134 
Q 1369 4134 1125 3890 
Q 881 3647 878 3216 
L 300 3275 
Q 359 3922 746 4261 
Q 1134 4600 1788 4600 
Q 2447 4600 2831 4234 
Q 3216 3869 3216 3328 
Q 3216 3053 3103 2787 
Q 2991 2522 2730 2228 
Q 2469 1934 1863 1422 
Q 1356 997 1212 845 
Q 1069 694 975 541 
L 3222 541 
z
" transform="scale(0.015625)"/>
       </defs>
       <use xlink:href="#ArialMT-30"/>
       <use xlink:href="#ArialMT-2e" x="55.615234"/>
       <use xlink:href="#ArialMT-30" x="83.398438"/>
       <use xlink:href="#ArialMT-32" x="139.013672"/>
      </g>
     </g>
    </g>
    <g id="xtick_4">
     <g id="line2d_4">
      <path d="M 332.947546 341.997994 
L 332.947546 22.663594 
" clip-path="url(#p99b48c9f24)" style="fill: none; stroke: #e6e6e6; stroke-width: 0.8; stroke-linecap: round"/>
     </g>
     <g id="text_4">
      <!-- 0.03 -->
      <g style="fill: #333333" transform="translate(322.24403 359.371587) scale(0.11 -0.11)">
       <defs>
        <path id="ArialMT-33" d="M 269 1209 
L 831 1284 
Q 928 806 1161 595 
Q 1394 384 1728 384 
Q 2125 384 2398 659 
Q 2672 934 2672 1341 
Q 2672 1728 2419 1979 
Q 2166 2231 1775 2231 
Q 1616 2231 1378 2169 
L 1441 2663 
Q 1497 2656 1531 2656 
Q 1891 2656 2178 2843 
Q 2466 3031 2466 3422 
Q 2466 3731 2256 3934 
Q 2047 4138 1716 4138 
Q 1388 4138 1169 3931 
Q 950 3725 888 3313 
L 325 3413 
Q 428 3978 793 4289 
Q 1159 4600 1703 4600 
Q 2078 4600 2393 4439 
Q 2709 4278 2876 4000 
Q 3044 3722 3044 3409 
Q 3044 3113 2884 2869 
Q 2725 2625 2413 2481 
Q 2819 2388 3044 2092 
Q 3269 1797 3269 1353 
Q 3269 753 2831 336 
Q 2394 -81 1725 -81 
Q 1122 -81 723 278 
Q 325 638 269 1209 
z
" transform="scale(0.015625)"/>
       </defs>
       <use xlink:href="#ArialMT-30"/>
       <use xlink:href="#ArialMT-2e" x="55.615234"/>
       <use xlink:href="#ArialMT-30" x="83.398438"/>
       <use xlink:href="#ArialMT-33" x="139.013672"/>
      </g>
     </g>
    </g>
    <g id="xtick_5">
     <g id="line2d_5">
      <path d="M 412.339123 341.997994 
L 412.339123 22.663594 
" clip-path="url(#p99b48c9f24)" style="fill: none; stroke: #e6e6e6; stroke-width: 0.8; stroke-linecap: round"/>
     </g>
     <g id="text_5">
      <!-- 0.04 -->
      <g style="fill: #333333" transform="translate(401.635608 359.371587) scale(0.11 -0.11)">
       <defs>
        <path id="ArialMT-34" d="M 2069 0 
L 2069 1097 
L 81 1097 
L 81 1613 
L 2172 4581 
L 2631 4581 
L 2631 1613 
L 3250 1613 
L 3250 1097 
L 2631 1097 
L 2631 0 
L 2069 0 
z
M 2069 1613 
L 2069 3678 
L 634 1613 
L 2069 1613 
z
" transform="scale(0.015625)"/>
       </defs>
       <use xlink:href="#ArialMT-30"/>
       <use xlink:href="#ArialMT-2e" x="55.615234"/>
       <use xlink:href="#ArialMT-30" x="83.398438"/>
       <use xlink:href="#ArialMT-34" x="139.013672"/>
      </g>
     </g>
    </g>
    <g id="xtick_6">
     <g id="line2d_6">
      <path d="M 491.730701 341.997994 
L 491.730701 22.663594 
" clip-path="url(#p99b48c9f24)" style="fill: none; stroke: #e6e6e6; stroke-width: 0.8; stroke-linecap: round"/>
     </g>
     <g id="text_6">
      <!-- 0.05 -->
      <g style="fill: #333333" transform="translate(481.027185 359.371587) scale(0.11 -0.11)">
       <defs>
        <path id="ArialMT-35" d="M 266 1200 
L 856 1250 
Q 922 819 1161 601 
Q 1400 384 1738 384 
Q 2144 384 2425 690 
Q 2706 997 2706 1503 
Q 2706 1984 2436 2262 
Q 2166 2541 1728 2541 
Q 1456 2541 1237 2417 
Q 1019 2294 894 2097 
L 366 2166 
L 809 4519 
L 3088 4519 
L 3088 3981 
L 1259 3981 
L 1013 2750 
Q 1425 3038 1878 3038 
Q 2478 3038 2890 2622 
Q 3303 2206 3303 1553 
Q 3303 931 2941 478 
Q 2500 -78 1738 -78 
Q 1113 -78 717 272 
Q 322 622 266 1200 
z
" transform="scale(0.015625)"/>
       </defs>
       <use xlink:href="#ArialMT-30"/>
       <use xlink:href="#ArialMT-2e" x="55.615234"/>
       <use xlink:href="#ArialMT-30" x="83.398438"/>
       <use xlink:href="#ArialMT-35" x="139.013672"/>
      </g>
     </g>
    </g>
    <g id="xtick_7">
     <g id="line2d_7">
      <path d="M 571.122279 341.997994 
L 571.122279 22.663594 
" clip-path="url(#p99b48c9f24)" style="fill: none; stroke: #e6e6e6; stroke-width: 0.8; stroke-linecap: round"/>
     </g>
     <g id="text_7">
      <!-- 0.06 -->
      <g style="fill: #333333" transform="translate(560.418763 359.371587) scale(0.11 -0.11)">
       <defs>
        <path id="ArialMT-36" d="M 3184 3459 
L 2625 3416 
Q 2550 3747 2413 3897 
Q 2184 4138 1850 4138 
Q 1581 4138 1378 3988 
Q 1113 3794 959 3422 
Q 806 3050 800 2363 
Q 1003 2672 1297 2822 
Q 1591 2972 1913 2972 
Q 2475 2972 2870 2558 
Q 3266 2144 3266 1488 
Q 3266 1056 3080 686 
Q 2894 316 2569 119 
Q 2244 -78 1831 -78 
Q 1128 -78 684 439 
Q 241 956 241 2144 
Q 241 3472 731 4075 
Q 1159 4600 1884 4600 
Q 2425 4600 2770 4297 
Q 3116 3994 3184 3459 
z
M 888 1484 
Q 888 1194 1011 928 
Q 1134 663 1356 523 
Q 1578 384 1822 384 
Q 2178 384 2434 671 
Q 2691 959 2691 1453 
Q 2691 1928 2437 2201 
Q 2184 2475 1800 2475 
Q 1419 2475 1153 2201 
Q 888 1928 888 1484 
z
" transform="scale(0.015625)"/>
       </defs>
       <use xlink:href="#ArialMT-30"/>
       <use xlink:href="#ArialMT-2e" x="55.615234"/>
       <use xlink:href="#ArialMT-30" x="83.398438"/>
       <use xlink:href="#ArialMT-36" x="139.013672"/>
      </g>
     </g>
    </g>
    <g id="xtick_8">
     <g id="line2d_8">
      <path d="M 650.513857 341.997994 
L 650.513857 22.663594 
" clip-path="url(#p99b48c9f24)" style="fill: none; stroke: #e6e6e6; stroke-width: 0.8; stroke-linecap: round"/>
     </g>
     <g id="text_8">
      <!-- 0.07 -->
      <g style="fill: #333333" transform="translate(639.810341 359.371587) scale(0.11 -0.11)">
       <defs>
        <path id="ArialMT-37" d="M 303 3981 
L 303 4522 
L 3269 4522 
L 3269 4084 
Q 2831 3619 2401 2847 
Q 1972 2075 1738 1259 
Q 1569 684 1522 0 
L 944 0 
Q 953 541 1156 1306 
Q 1359 2072 1739 2783 
Q 2119 3494 2547 3981 
L 303 3981 
z
" transform="scale(0.015625)"/>
       </defs>
       <use xlink:href="#ArialMT-30"/>
       <use xlink:href="#ArialMT-2e" x="55.615234"/>
       <use xlink:href="#ArialMT-30" x="83.398438"/>
       <use xlink:href="#ArialMT-37" x="139.013672"/>
      </g>
     </g>
    </g>
    <g id="text_9">
     <!-- Rank 1 match fraction minus rank 2 match fraction -->
     <g style="fill: #222222" transform="translate(267.959063 374.147213) scale(0.12 -0.12)">
      <defs>
       <path id="ArialMT-52" d="M 503 0 
L 503 4581 
L 2534 4581 
Q 3147 4581 3465 4457 
Q 3784 4334 3975 4021 
Q 4166 3709 4166 3331 
Q 4166 2844 3850 2509 
Q 3534 2175 2875 2084 
Q 3116 1969 3241 1856 
Q 3506 1613 3744 1247 
L 4541 0 
L 3778 0 
L 3172 953 
Q 2906 1366 2734 1584 
Q 2563 1803 2427 1890 
Q 2291 1978 2150 2013 
Q 2047 2034 1813 2034 
L 1109 2034 
L 1109 0 
L 503 0 
z
M 1109 2559 
L 2413 2559 
Q 2828 2559 3062 2645 
Q 3297 2731 3419 2920 
Q 3541 3109 3541 3331 
Q 3541 3656 3305 3865 
Q 3069 4075 2559 4075 
L 1109 4075 
L 1109 2559 
z
" transform="scale(0.015625)"/>
       <path id="ArialMT-61" d="M 2588 409 
Q 2275 144 1986 34 
Q 1697 -75 1366 -75 
Q 819 -75 525 192 
Q 231 459 231 875 
Q 231 1119 342 1320 
Q 453 1522 633 1644 
Q 813 1766 1038 1828 
Q 1203 1872 1538 1913 
Q 2219 1994 2541 2106 
Q 2544 2222 2544 2253 
Q 2544 2597 2384 2738 
Q 2169 2928 1744 2928 
Q 1347 2928 1158 2789 
Q 969 2650 878 2297 
L 328 2372 
Q 403 2725 575 2942 
Q 747 3159 1072 3276 
Q 1397 3394 1825 3394 
Q 2250 3394 2515 3294 
Q 2781 3194 2906 3042 
Q 3031 2891 3081 2659 
Q 3109 2516 3109 2141 
L 3109 1391 
Q 3109 606 3145 398 
Q 3181 191 3288 0 
L 2700 0 
Q 2613 175 2588 409 
z
M 2541 1666 
Q 2234 1541 1622 1453 
Q 1275 1403 1131 1340 
Q 988 1278 909 1158 
Q 831 1038 831 891 
Q 831 666 1001 516 
Q 1172 366 1500 366 
Q 1825 366 2078 508 
Q 2331 650 2450 897 
Q 2541 1088 2541 1459 
L 2541 1666 
z
" transform="scale(0.015625)"/>
       <path id="ArialMT-6e" d="M 422 0 
L 422 3319 
L 928 3319 
L 928 2847 
Q 1294 3394 1984 3394 
Q 2284 3394 2536 3286 
Q 2788 3178 2913 3003 
Q 3038 2828 3088 2588 
Q 3119 2431 3119 2041 
L 3119 0 
L 2556 0 
L 2556 2019 
Q 2556 2363 2490 2533 
Q 2425 2703 2258 2804 
Q 2091 2906 1866 2906 
Q 1506 2906 1245 2678 
Q 984 2450 984 1813 
L 984 0 
L 422 0 
z
" transform="scale(0.015625)"/>
       <path id="ArialMT-6b" d="M 425 0 
L 425 4581 
L 988 4581 
L 988 1969 
L 2319 3319 
L 3047 3319 
L 1778 2088 
L 3175 0 
L 2481 0 
L 1384 1697 
L 988 1316 
L 988 0 
L 425 0 
z
" transform="scale(0.015625)"/>
       <path id="ArialMT-20" transform="scale(0.015625)"/>
       <path id="ArialMT-6d" d="M 422 0 
L 422 3319 
L 925 3319 
L 925 2853 
Q 1081 3097 1340 3245 
Q 1600 3394 1931 3394 
Q 2300 3394 2536 3241 
Q 2772 3088 2869 2813 
Q 3263 3394 3894 3394 
Q 4388 3394 4653 3120 
Q 4919 2847 4919 2278 
L 4919 0 
L 4359 0 
L 4359 2091 
Q 4359 2428 4304 2576 
Q 4250 2725 4106 2815 
Q 3963 2906 3769 2906 
Q 3419 2906 3187 2673 
Q 2956 2441 2956 1928 
L 2956 0 
L 2394 0 
L 2394 2156 
Q 2394 2531 2256 2718 
Q 2119 2906 1806 2906 
Q 1569 2906 1367 2781 
Q 1166 2656 1075 2415 
Q 984 2175 984 1722 
L 984 0 
L 422 0 
z
" transform="scale(0.015625)"/>
       <path id="ArialMT-74" d="M 1650 503 
L 1731 6 
Q 1494 -44 1306 -44 
Q 1000 -44 831 53 
Q 663 150 594 308 
Q 525 466 525 972 
L 525 2881 
L 113 2881 
L 113 3319 
L 525 3319 
L 525 4141 
L 1084 4478 
L 1084 3319 
L 1650 3319 
L 1650 2881 
L 1084 2881 
L 1084 941 
Q 1084 700 1114 631 
Q 1144 563 1211 522 
Q 1278 481 1403 481 
Q 1497 481 1650 503 
z
" transform="scale(0.015625)"/>
       <path id="ArialMT-63" d="M 2588 1216 
L 3141 1144 
Q 3050 572 2676 248 
Q 2303 -75 1759 -75 
Q 1078 -75 664 370 
Q 250 816 250 1647 
Q 250 2184 428 2587 
Q 606 2991 970 3192 
Q 1334 3394 1763 3394 
Q 2303 3394 2647 3120 
Q 2991 2847 3088 2344 
L 2541 2259 
Q 2463 2594 2264 2762 
Q 2066 2931 1784 2931 
Q 1359 2931 1093 2626 
Q 828 2322 828 1663 
Q 828 994 1084 691 
Q 1341 388 1753 388 
Q 2084 388 2306 591 
Q 2528 794 2588 1216 
z
" transform="scale(0.015625)"/>
       <path id="ArialMT-68" d="M 422 0 
L 422 4581 
L 984 4581 
L 984 2938 
Q 1378 3394 1978 3394 
Q 2347 3394 2619 3248 
Q 2891 3103 3008 2847 
Q 3125 2591 3125 2103 
L 3125 0 
L 2563 0 
L 2563 2103 
Q 2563 2525 2380 2717 
Q 2197 2909 1863 2909 
Q 1613 2909 1392 2779 
Q 1172 2650 1078 2428 
Q 984 2206 984 1816 
L 984 0 
L 422 0 
z
" transform="scale(0.015625)"/>
       <path id="ArialMT-66" d="M 556 0 
L 556 2881 
L 59 2881 
L 59 3319 
L 556 3319 
L 556 3672 
Q 556 4006 616 4169 
Q 697 4388 901 4523 
Q 1106 4659 1475 4659 
Q 1713 4659 2000 4603 
L 1916 4113 
Q 1741 4144 1584 4144 
Q 1328 4144 1222 4034 
Q 1116 3925 1116 3625 
L 1116 3319 
L 1763 3319 
L 1763 2881 
L 1116 2881 
L 1116 0 
L 556 0 
z
" transform="scale(0.015625)"/>
       <path id="ArialMT-72" d="M 416 0 
L 416 3319 
L 922 3319 
L 922 2816 
Q 1116 3169 1280 3281 
Q 1444 3394 1641 3394 
Q 1925 3394 2219 3213 
L 2025 2691 
Q 1819 2813 1613 2813 
Q 1428 2813 1281 2702 
Q 1134 2591 1072 2394 
Q 978 2094 978 1738 
L 978 0 
L 416 0 
z
" transform="scale(0.015625)"/>
       <path id="ArialMT-69" d="M 425 3934 
L 425 4581 
L 988 4581 
L 988 3934 
L 425 3934 
z
M 425 0 
L 425 3319 
L 988 3319 
L 988 0 
L 425 0 
z
" transform="scale(0.015625)"/>
       <path id="ArialMT-6f" d="M 213 1659 
Q 213 2581 725 3025 
Q 1153 3394 1769 3394 
Q 2453 3394 2887 2945 
Q 3322 2497 3322 1706 
Q 3322 1066 3130 698 
Q 2938 331 2570 128 
Q 2203 -75 1769 -75 
Q 1072 -75 642 372 
Q 213 819 213 1659 
z
M 791 1659 
Q 791 1022 1069 705 
Q 1347 388 1769 388 
Q 2188 388 2466 706 
Q 2744 1025 2744 1678 
Q 2744 2294 2464 2611 
Q 2184 2928 1769 2928 
Q 1347 2928 1069 2612 
Q 791 2297 791 1659 
z
" transform="scale(0.015625)"/>
       <path id="ArialMT-75" d="M 2597 0 
L 2597 488 
Q 2209 -75 1544 -75 
Q 1250 -75 995 37 
Q 741 150 617 320 
Q 494 491 444 738 
Q 409 903 409 1263 
L 409 3319 
L 972 3319 
L 972 1478 
Q 972 1038 1006 884 
Q 1059 663 1231 536 
Q 1403 409 1656 409 
Q 1909 409 2131 539 
Q 2353 669 2445 892 
Q 2538 1116 2538 1541 
L 2538 3319 
L 3100 3319 
L 3100 0 
L 2597 0 
z
" transform="scale(0.015625)"/>
       <path id="ArialMT-73" d="M 197 991 
L 753 1078 
Q 800 744 1014 566 
Q 1228 388 1613 388 
Q 2000 388 2187 545 
Q 2375 703 2375 916 
Q 2375 1106 2209 1216 
Q 2094 1291 1634 1406 
Q 1016 1563 777 1677 
Q 538 1791 414 1992 
Q 291 2194 291 2438 
Q 291 2659 392 2848 
Q 494 3038 669 3163 
Q 800 3259 1026 3326 
Q 1253 3394 1513 3394 
Q 1903 3394 2198 3281 
Q 2494 3169 2634 2976 
Q 2775 2784 2828 2463 
L 2278 2388 
Q 2241 2644 2061 2787 
Q 1881 2931 1553 2931 
Q 1166 2931 1000 2803 
Q 834 2675 834 2503 
Q 834 2394 903 2306 
Q 972 2216 1119 2156 
Q 1203 2125 1616 2013 
Q 2213 1853 2448 1751 
Q 2684 1650 2818 1456 
Q 2953 1263 2953 975 
Q 2953 694 2789 445 
Q 2625 197 2315 61 
Q 2006 -75 1616 -75 
Q 969 -75 630 194 
Q 291 463 197 991 
z
" transform="scale(0.015625)"/>
      </defs>
      <use xlink:href="#ArialMT-52"/>
      <use xlink:href="#ArialMT-61" x="72.216797"/>
      <use xlink:href="#ArialMT-6e" x="127.832031"/>
      <use xlink:href="#ArialMT-6b" x="183.447266"/>
      <use xlink:href="#ArialMT-20" x="233.447266"/>
      <use xlink:href="#ArialMT-31" x="261.230469"/>
      <use xlink:href="#ArialMT-20" x="316.845703"/>
      <use xlink:href="#ArialMT-6d" x="344.628906"/>
      <use xlink:href="#ArialMT-61" x="427.929688"/>
      <use xlink:href="#ArialMT-74" x="483.544922"/>
      <use xlink:href="#ArialMT-63" x="511.328125"/>
      <use xlink:href="#ArialMT-68" x="561.328125"/>
      <use xlink:href="#ArialMT-20" x="616.943359"/>
      <use xlink:href="#ArialMT-66" x="644.726562"/>
      <use xlink:href="#ArialMT-72" x="672.509766"/>
      <use xlink:href="#ArialMT-61" x="705.810547"/>
      <use xlink:href="#ArialMT-63" x="761.425781"/>
      <use xlink:href="#ArialMT-74" x="811.425781"/>
      <use xlink:href="#ArialMT-69" x="839.208984"/>
      <use xlink:href="#ArialMT-6f" x="861.425781"/>
      <use xlink:href="#ArialMT-6e" x="917.041016"/>
      <use xlink:href="#ArialMT-20" x="972.65625"/>
      <use xlink:href="#ArialMT-6d" x="1000.439453"/>
      <use xlink:href="#ArialMT-69" x="1083.740234"/>
      <use xlink:href="#ArialMT-6e" x="1105.957031"/>
      <use xlink:href="#ArialMT-75" x="1161.572266"/>
      <use xlink:href="#ArialMT-73" x="1217.1875"/>
      <use xlink:href="#ArialMT-20" x="1267.1875"/>
      <use xlink:href="#ArialMT-72" x="1294.970703"/>
      <use xlink:href="#ArialMT-61" x="1328.271484"/>
      <use xlink:href="#ArialMT-6e" x="1383.886719"/>
      <use xlink:href="#ArialMT-6b" x="1439.501953"/>
      <use xlink:href="#ArialMT-20" x="1489.501953"/>
      <use xlink:href="#ArialMT-32" x="1517.285156"/>
      <use xlink:href="#ArialMT-20" x="1572.900391"/>
      <use xlink:href="#ArialMT-6d" x="1600.683594"/>
      <use xlink:href="#ArialMT-61" x="1683.984375"/>
      <use xlink:href="#ArialMT-74" x="1739.599609"/>
      <use xlink:href="#ArialMT-63" x="1767.382812"/>
      <use xlink:href="#ArialMT-68" x="1817.382812"/>
      <use xlink:href="#ArialMT-20" x="1872.998047"/>
      <use xlink:href="#ArialMT-66" x="1900.78125"/>
      <use xlink:href="#ArialMT-72" x="1928.564453"/>
      <use xlink:href="#ArialMT-61" x="1961.865234"/>
      <use xlink:href="#ArialMT-63" x="2017.480469"/>
      <use xlink:href="#ArialMT-74" x="2067.480469"/>
      <use xlink:href="#ArialMT-69" x="2095.263672"/>
      <use xlink:href="#ArialMT-6f" x="2117.480469"/>
      <use xlink:href="#ArialMT-6e" x="2173.095703"/>
     </g>
    </g>
   </g>
   <g id="matplotlib.axis_2">
    <g id="ytick_1">
     <g id="line2d_9">
      <path d="M 94.772813 37.178794 
L 708.572813 37.178794 
" clip-path="url(#p99b48c9f24)" style="fill: none; stroke: #e6e6e6; stroke-width: 0.8; stroke-linecap: round"/>
     </g>
     <g id="text_10">
      <!-- MiyakoWhite -->
      <g style="fill: #333333" transform="translate(22.315 41.115591) scale(0.11 -0.11)">
       <defs>
        <path id="ArialMT-4d" d="M 475 0 
L 475 4581 
L 1388 4581 
L 2472 1338 
Q 2622 884 2691 659 
Q 2769 909 2934 1394 
L 4031 4581 
L 4847 4581 
L 4847 0 
L 4263 0 
L 4263 3834 
L 2931 0 
L 2384 0 
L 1059 3900 
L 1059 0 
L 475 0 
z
" transform="scale(0.015625)"/>
        <path id="ArialMT-79" d="M 397 -1278 
L 334 -750 
Q 519 -800 656 -800 
Q 844 -800 956 -737 
Q 1069 -675 1141 -563 
Q 1194 -478 1313 -144 
Q 1328 -97 1363 -6 
L 103 3319 
L 709 3319 
L 1400 1397 
Q 1534 1031 1641 628 
Q 1738 1016 1872 1384 
L 2581 3319 
L 3144 3319 
L 1881 -56 
Q 1678 -603 1566 -809 
Q 1416 -1088 1222 -1217 
Q 1028 -1347 759 -1347 
Q 597 -1347 397 -1278 
z
" transform="scale(0.015625)"/>
        <path id="ArialMT-57" d="M 1294 0 
L 78 4581 
L 700 4581 
L 1397 1578 
Q 1509 1106 1591 641 
Q 1766 1375 1797 1488 
L 2669 4581 
L 3400 4581 
L 4056 2263 
Q 4303 1400 4413 641 
Q 4500 1075 4641 1638 
L 5359 4581 
L 5969 4581 
L 4713 0 
L 4128 0 
L 3163 3491 
Q 3041 3928 3019 4028 
Q 2947 3713 2884 3491 
L 1913 0 
L 1294 0 
z
" transform="scale(0.015625)"/>
        <path id="ArialMT-65" d="M 2694 1069 
L 3275 997 
Q 3138 488 2766 206 
Q 2394 -75 1816 -75 
Q 1088 -75 661 373 
Q 234 822 234 1631 
Q 234 2469 665 2931 
Q 1097 3394 1784 3394 
Q 2450 3394 2872 2941 
Q 3294 2488 3294 1666 
Q 3294 1616 3291 1516 
L 816 1516 
Q 847 969 1125 678 
Q 1403 388 1819 388 
Q 2128 388 2347 550 
Q 2566 713 2694 1069 
z
M 847 1978 
L 2700 1978 
Q 2663 2397 2488 2606 
Q 2219 2931 1791 2931 
Q 1403 2931 1139 2672 
Q 875 2413 847 1978 
z
" transform="scale(0.015625)"/>
       </defs>
       <use xlink:href="#ArialMT-4d"/>
       <use xlink:href="#ArialMT-69" x="83.300781"/>
       <use xlink:href="#ArialMT-79" x="105.517578"/>
       <use xlink:href="#ArialMT-61" x="155.517578"/>
       <use xlink:href="#ArialMT-6b" x="211.132812"/>
       <use xlink:href="#ArialMT-6f" x="261.132812"/>
       <use xlink:href="#ArialMT-57" x="316.748047"/>
       <use xlink:href="#ArialMT-68" x="411.132812"/>
       <use xlink:href="#ArialMT-69" x="466.748047"/>
       <use xlink:href="#ArialMT-74" x="488.964844"/>
       <use xlink:href="#ArialMT-65" x="516.748047"/>
      </g>
     </g>
    </g>
    <g id="ytick_2">
     <g id="line2d_10">
      <path d="M 94.772813 66.209194 
L 708.572813 66.209194 
" clip-path="url(#p99b48c9f24)" style="fill: none; stroke: #e6e6e6; stroke-width: 0.8; stroke-linecap: round"/>
     </g>
     <g id="text_11">
      <!-- PI407020 -->
      <g style="fill: #333333" transform="translate(38.177344 70.145991) scale(0.11 -0.11)">
       <defs>
        <path id="ArialMT-50" d="M 494 0 
L 494 4581 
L 2222 4581 
Q 2678 4581 2919 4538 
Q 3256 4481 3484 4323 
Q 3713 4166 3852 3881 
Q 3991 3597 3991 3256 
Q 3991 2672 3619 2267 
Q 3247 1863 2275 1863 
L 1100 1863 
L 1100 0 
L 494 0 
z
M 1100 2403 
L 2284 2403 
Q 2872 2403 3119 2622 
Q 3366 2841 3366 3238 
Q 3366 3525 3220 3729 
Q 3075 3934 2838 4000 
Q 2684 4041 2272 4041 
L 1100 4041 
L 1100 2403 
z
" transform="scale(0.015625)"/>
        <path id="ArialMT-49" d="M 597 0 
L 597 4581 
L 1203 4581 
L 1203 0 
L 597 0 
z
" transform="scale(0.015625)"/>
       </defs>
       <use xlink:href="#ArialMT-50"/>
       <use xlink:href="#ArialMT-49" x="66.699219"/>
       <use xlink:href="#ArialMT-34" x="94.482422"/>
       <use xlink:href="#ArialMT-30" x="150.097656"/>
       <use xlink:href="#ArialMT-37" x="205.712891"/>
       <use xlink:href="#ArialMT-30" x="261.328125"/>
       <use xlink:href="#ArialMT-32" x="316.943359"/>
       <use xlink:href="#ArialMT-30" x="372.558594"/>
      </g>
     </g>
    </g>
    <g id="ytick_3">
     <g id="line2d_11">
      <path d="M 94.772813 95.239594 
L 708.572813 95.239594 
" clip-path="url(#p99b48c9f24)" style="fill: none; stroke: #e6e6e6; stroke-width: 0.8; stroke-linecap: round"/>
     </g>
     <g id="text_12">
      <!-- Jackv3 -->
      <g style="fill: #333333" transform="translate(51.03875 99.176391) scale(0.11 -0.11)">
       <defs>
        <path id="ArialMT-4a" d="M 184 1300 
L 731 1375 
Q 753 850 928 656 
Q 1103 463 1413 463 
Q 1641 463 1806 567 
Q 1972 672 2034 851 
Q 2097 1031 2097 1425 
L 2097 4581 
L 2703 4581 
L 2703 1459 
Q 2703 884 2564 568 
Q 2425 253 2123 87 
Q 1822 -78 1416 -78 
Q 813 -78 492 269 
Q 172 616 184 1300 
z
" transform="scale(0.015625)"/>
        <path id="ArialMT-76" d="M 1344 0 
L 81 3319 
L 675 3319 
L 1388 1331 
Q 1503 1009 1600 663 
Q 1675 925 1809 1294 
L 2547 3319 
L 3125 3319 
L 1869 0 
L 1344 0 
z
" transform="scale(0.015625)"/>
       </defs>
       <use xlink:href="#ArialMT-4a"/>
       <use xlink:href="#ArialMT-61" x="50"/>
       <use xlink:href="#ArialMT-63" x="105.615234"/>
       <use xlink:href="#ArialMT-6b" x="155.615234"/>
       <use xlink:href="#ArialMT-76" x="205.615234"/>
       <use xlink:href="#ArialMT-33" x="255.615234"/>
      </g>
     </g>
    </g>
    <g id="ytick_4">
     <g id="line2d_12">
      <path d="M 94.772813 124.269994 
L 708.572813 124.269994 
" clip-path="url(#p99b48c9f24)" style="fill: none; stroke: #e6e6e6; stroke-width: 0.8; stroke-linecap: round"/>
     </g>
     <g id="text_13">
      <!-- PI507847 -->
      <g style="fill: #333333" transform="translate(38.177344 128.206791) scale(0.11 -0.11)">
       <defs>
        <path id="ArialMT-38" d="M 1131 2484 
Q 781 2613 612 2850 
Q 444 3088 444 3419 
Q 444 3919 803 4259 
Q 1163 4600 1759 4600 
Q 2359 4600 2725 4251 
Q 3091 3903 3091 3403 
Q 3091 3084 2923 2848 
Q 2756 2613 2416 2484 
Q 2838 2347 3058 2040 
Q 3278 1734 3278 1309 
Q 3278 722 2862 322 
Q 2447 -78 1769 -78 
Q 1091 -78 675 323 
Q 259 725 259 1325 
Q 259 1772 486 2073 
Q 713 2375 1131 2484 
z
M 1019 3438 
Q 1019 3113 1228 2906 
Q 1438 2700 1772 2700 
Q 2097 2700 2305 2904 
Q 2513 3109 2513 3406 
Q 2513 3716 2298 3927 
Q 2084 4138 1766 4138 
Q 1444 4138 1231 3931 
Q 1019 3725 1019 3438 
z
M 838 1322 
Q 838 1081 952 856 
Q 1066 631 1291 507 
Q 1516 384 1775 384 
Q 2178 384 2440 643 
Q 2703 903 2703 1303 
Q 2703 1709 2433 1975 
Q 2163 2241 1756 2241 
Q 1359 2241 1098 1978 
Q 838 1716 838 1322 
z
" transform="scale(0.015625)"/>
       </defs>
       <use xlink:href="#ArialMT-50"/>
       <use xlink:href="#ArialMT-49" x="66.699219"/>
       <use xlink:href="#ArialMT-35" x="94.482422"/>
       <use xlink:href="#ArialMT-30" x="150.097656"/>
       <use xlink:href="#ArialMT-37" x="205.712891"/>
       <use xlink:href="#ArialMT-38" x="261.328125"/>
       <use xlink:href="#ArialMT-34" x="316.943359"/>
       <use xlink:href="#ArialMT-37" x="372.558594"/>
      </g>
     </g>
    </g>
    <g id="ytick_5">
     <g id="line2d_13">
      <path d="M 94.772813 153.300394 
L 708.572813 153.300394 
" clip-path="url(#p99b48c9f24)" style="fill: none; stroke: #e6e6e6; stroke-width: 0.8; stroke-linecap: round"/>
     </g>
     <g id="text_14">
      <!-- Benning -->
      <g style="fill: #333333" transform="translate(44.90625 157.237191) scale(0.11 -0.11)">
       <defs>
        <path id="ArialMT-42" d="M 469 0 
L 469 4581 
L 2188 4581 
Q 2713 4581 3030 4442 
Q 3347 4303 3526 4014 
Q 3706 3725 3706 3409 
Q 3706 3116 3547 2856 
Q 3388 2597 3066 2438 
Q 3481 2316 3704 2022 
Q 3928 1728 3928 1328 
Q 3928 1006 3792 729 
Q 3656 453 3456 303 
Q 3256 153 2954 76 
Q 2653 0 2216 0 
L 469 0 
z
M 1075 2656 
L 2066 2656 
Q 2469 2656 2644 2709 
Q 2875 2778 2992 2937 
Q 3109 3097 3109 3338 
Q 3109 3566 3000 3739 
Q 2891 3913 2687 3977 
Q 2484 4041 1991 4041 
L 1075 4041 
L 1075 2656 
z
M 1075 541 
L 2216 541 
Q 2509 541 2628 563 
Q 2838 600 2978 687 
Q 3119 775 3209 942 
Q 3300 1109 3300 1328 
Q 3300 1584 3169 1773 
Q 3038 1963 2805 2039 
Q 2572 2116 2134 2116 
L 1075 2116 
L 1075 541 
z
" transform="scale(0.015625)"/>
        <path id="ArialMT-67" d="M 319 -275 
L 866 -356 
Q 900 -609 1056 -725 
Q 1266 -881 1628 -881 
Q 2019 -881 2231 -725 
Q 2444 -569 2519 -288 
Q 2563 -116 2559 434 
Q 2191 0 1641 0 
Q 956 0 581 494 
Q 206 988 206 1678 
Q 206 2153 378 2554 
Q 550 2956 876 3175 
Q 1203 3394 1644 3394 
Q 2231 3394 2613 2919 
L 2613 3319 
L 3131 3319 
L 3131 450 
Q 3131 -325 2973 -648 
Q 2816 -972 2473 -1159 
Q 2131 -1347 1631 -1347 
Q 1038 -1347 672 -1080 
Q 306 -813 319 -275 
z
M 784 1719 
Q 784 1066 1043 766 
Q 1303 466 1694 466 
Q 2081 466 2343 764 
Q 2606 1063 2606 1700 
Q 2606 2309 2336 2618 
Q 2066 2928 1684 2928 
Q 1309 2928 1046 2623 
Q 784 2319 784 1719 
z
" transform="scale(0.015625)"/>
       </defs>
       <use xlink:href="#ArialMT-42"/>
       <use xlink:href="#ArialMT-65" x="66.699219"/>
       <use xlink:href="#ArialMT-6e" x="122.314453"/>
       <use xlink:href="#ArialMT-6e" x="177.929688"/>
       <use xlink:href="#ArialMT-69" x="233.544922"/>
       <use xlink:href="#ArialMT-6e" x="255.761719"/>
       <use xlink:href="#ArialMT-67" x="311.376953"/>
      </g>
     </g>
    </g>
    <g id="ytick_6">
     <g id="line2d_14">
      <path d="M 94.772813 182.330794 
L 708.572813 182.330794 
" clip-path="url(#p99b48c9f24)" style="fill: none; stroke: #e6e6e6; stroke-width: 0.8; stroke-linecap: round"/>
     </g>
     <g id="text_15">
      <!-- PI407303 -->
      <g style="fill: #333333" transform="translate(38.177344 186.267591) scale(0.11 -0.11)">
       <use xlink:href="#ArialMT-50"/>
       <use xlink:href="#ArialMT-49" x="66.699219"/>
       <use xlink:href="#ArialMT-34" x="94.482422"/>
       <use xlink:href="#ArialMT-30" x="150.097656"/>
       <use xlink:href="#ArialMT-37" x="205.712891"/>
       <use xlink:href="#ArialMT-33" x="261.328125"/>
       <use xlink:href="#ArialMT-30" x="316.943359"/>
       <use xlink:href="#ArialMT-33" x="372.558594"/>
      </g>
     </g>
    </g>
    <g id="ytick_7">
     <g id="line2d_15">
      <path d="M 94.772813 211.361194 
L 708.572813 211.361194 
" clip-path="url(#p99b48c9f24)" style="fill: none; stroke: #e6e6e6; stroke-width: 0.8; stroke-linecap: round"/>
     </g>
     <g id="text_16">
      <!-- Pekingv3 -->
      <g style="fill: #333333" transform="translate(40.023281 215.314319) scale(0.11 -0.11)">
       <use xlink:href="#ArialMT-50"/>
       <use xlink:href="#ArialMT-65" x="66.699219"/>
       <use xlink:href="#ArialMT-6b" x="122.314453"/>
       <use xlink:href="#ArialMT-69" x="172.314453"/>
       <use xlink:href="#ArialMT-6e" x="194.53125"/>
       <use xlink:href="#ArialMT-67" x="250.146484"/>
       <use xlink:href="#ArialMT-76" x="305.761719"/>
       <use xlink:href="#ArialMT-33" x="355.761719"/>
      </g>
     </g>
    </g>
    <g id="ytick_8">
     <g id="line2d_16">
      <path d="M 94.772813 240.391594 
L 708.572813 240.391594 
" clip-path="url(#p99b48c9f24)" style="fill: none; stroke: #e6e6e6; stroke-width: 0.8; stroke-linecap: round"/>
     </g>
     <g id="text_17">
      <!-- Clark -->
      <g style="fill: #333333" transform="translate(59.605 244.328391) scale(0.11 -0.11)">
       <defs>
        <path id="ArialMT-43" d="M 3763 1606 
L 4369 1453 
Q 4178 706 3683 314 
Q 3188 -78 2472 -78 
Q 1731 -78 1267 223 
Q 803 525 561 1097 
Q 319 1669 319 2325 
Q 319 3041 592 3573 
Q 866 4106 1370 4382 
Q 1875 4659 2481 4659 
Q 3169 4659 3637 4309 
Q 4106 3959 4291 3325 
L 3694 3184 
Q 3534 3684 3231 3912 
Q 2928 4141 2469 4141 
Q 1941 4141 1586 3887 
Q 1231 3634 1087 3207 
Q 944 2781 944 2328 
Q 944 1744 1114 1308 
Q 1284 872 1643 656 
Q 2003 441 2422 441 
Q 2931 441 3284 734 
Q 3638 1028 3763 1606 
z
" transform="scale(0.015625)"/>
        <path id="ArialMT-6c" d="M 409 0 
L 409 4581 
L 972 4581 
L 972 0 
L 409 0 
z
" transform="scale(0.015625)"/>
       </defs>
       <use xlink:href="#ArialMT-43"/>
       <use xlink:href="#ArialMT-6c" x="72.216797"/>
       <use xlink:href="#ArialMT-61" x="94.433594"/>
       <use xlink:href="#ArialMT-72" x="150.048828"/>
       <use xlink:href="#ArialMT-6b" x="183.349609"/>
      </g>
     </g>
    </g>
    <g id="ytick_9">
     <g id="line2d_17">
      <path d="M 94.772813 269.421994 
L 708.572813 269.421994 
" clip-path="url(#p99b48c9f24)" style="fill: none; stroke: #e6e6e6; stroke-width: 0.8; stroke-linecap: round"/>
     </g>
     <g id="text_18">
      <!-- Minsoy -->
      <g style="fill: #333333" transform="translate(50.432031 273.358791) scale(0.11 -0.11)">
       <use xlink:href="#ArialMT-4d"/>
       <use xlink:href="#ArialMT-69" x="83.300781"/>
       <use xlink:href="#ArialMT-6e" x="105.517578"/>
       <use xlink:href="#ArialMT-73" x="161.132812"/>
       <use xlink:href="#ArialMT-6f" x="211.132812"/>
       <use xlink:href="#ArialMT-79" x="266.748047"/>
      </g>
     </g>
    </g>
    <g id="ytick_10">
     <g id="line2d_18">
      <path d="M 94.772813 298.452394 
L 708.572813 298.452394 
" clip-path="url(#p99b48c9f24)" style="fill: none; stroke: #e6e6e6; stroke-width: 0.8; stroke-linecap: round"/>
     </g>
     <g id="text_19">
      <!-- Kingawa -->
      <g style="fill: #333333" transform="translate(43.079219 302.389191) scale(0.11 -0.11)">
       <defs>
        <path id="ArialMT-4b" d="M 469 0 
L 469 4581 
L 1075 4581 
L 1075 2309 
L 3350 4581 
L 4172 4581 
L 2250 2725 
L 4256 0 
L 3456 0 
L 1825 2319 
L 1075 1588 
L 1075 0 
L 469 0 
z
" transform="scale(0.015625)"/>
        <path id="ArialMT-77" d="M 1034 0 
L 19 3319 
L 600 3319 
L 1128 1403 
L 1325 691 
Q 1338 744 1497 1375 
L 2025 3319 
L 2603 3319 
L 3100 1394 
L 3266 759 
L 3456 1400 
L 4025 3319 
L 4572 3319 
L 3534 0 
L 2950 0 
L 2422 1988 
L 2294 2553 
L 1622 0 
L 1034 0 
z
" transform="scale(0.015625)"/>
       </defs>
       <use xlink:href="#ArialMT-4b"/>
       <use xlink:href="#ArialMT-69" x="66.699219"/>
       <use xlink:href="#ArialMT-6e" x="88.916016"/>
       <use xlink:href="#ArialMT-67" x="144.53125"/>
       <use xlink:href="#ArialMT-61" x="200.146484"/>
       <use xlink:href="#ArialMT-77" x="255.761719"/>
       <use xlink:href="#ArialMT-61" x="327.978516"/>
      </g>
     </g>
    </g>
    <g id="ytick_11">
     <g id="line2d_19">
      <path d="M 94.772813 327.482794 
L 708.572813 327.482794 
" clip-path="url(#p99b48c9f24)" style="fill: none; stroke: #e6e6e6; stroke-width: 0.8; stroke-linecap: round"/>
     </g>
     <g id="text_20">
      <!-- Harosoy -->
      <g style="fill: #333333" transform="translate(44.315 331.419591) scale(0.11 -0.11)">
       <defs>
        <path id="ArialMT-48" d="M 513 0 
L 513 4581 
L 1119 4581 
L 1119 2700 
L 3500 2700 
L 3500 4581 
L 4106 4581 
L 4106 0 
L 3500 0 
L 3500 2159 
L 1119 2159 
L 1119 0 
L 513 0 
z
" transform="scale(0.015625)"/>
       </defs>
       <use xlink:href="#ArialMT-48"/>
       <use xlink:href="#ArialMT-61" x="72.216797"/>
       <use xlink:href="#ArialMT-72" x="127.832031"/>
       <use xlink:href="#ArialMT-6f" x="161.132812"/>
       <use xlink:href="#ArialMT-73" x="216.748047"/>
       <use xlink:href="#ArialMT-6f" x="266.748047"/>
       <use xlink:href="#ArialMT-79" x="322.363281"/>
      </g>
     </g>
    </g>
    <g id="text_21">
     <!-- Assembly -->
     <g style="fill: #222222" transform="translate(15.789375 208.337044) rotate(-90) scale(0.12 -0.12)">
      <defs>
       <path id="ArialMT-41" d="M -9 0 
L 1750 4581 
L 2403 4581 
L 4278 0 
L 3588 0 
L 3053 1388 
L 1138 1388 
L 634 0 
L -9 0 
z
M 1313 1881 
L 2866 1881 
L 2388 3150 
Q 2169 3728 2063 4100 
Q 1975 3659 1816 3225 
L 1313 1881 
z
" transform="scale(0.015625)"/>
       <path id="ArialMT-62" d="M 941 0 
L 419 0 
L 419 4581 
L 981 4581 
L 981 2947 
Q 1338 3394 1891 3394 
Q 2197 3394 2470 3270 
Q 2744 3147 2920 2923 
Q 3097 2700 3197 2384 
Q 3297 2069 3297 1709 
Q 3297 856 2875 390 
Q 2453 -75 1863 -75 
Q 1275 -75 941 416 
L 941 0 
z
M 934 1684 
Q 934 1088 1097 822 
Q 1363 388 1816 388 
Q 2184 388 2453 708 
Q 2722 1028 2722 1663 
Q 2722 2313 2464 2622 
Q 2206 2931 1841 2931 
Q 1472 2931 1203 2611 
Q 934 2291 934 1684 
z
" transform="scale(0.015625)"/>
      </defs>
      <use xlink:href="#ArialMT-41"/>
      <use xlink:href="#ArialMT-73" x="66.699219"/>
      <use xlink:href="#ArialMT-73" x="116.699219"/>
      <use xlink:href="#ArialMT-65" x="166.699219"/>
      <use xlink:href="#ArialMT-6d" x="222.314453"/>
      <use xlink:href="#ArialMT-62" x="305.615234"/>
      <use xlink:href="#ArialMT-6c" x="361.230469"/>
      <use xlink:href="#ArialMT-79" x="383.447266"/>
     </g>
    </g>
   </g>
   <g id="PathCollection_1">
    <path d="M 94.772813 333.120854 
C 96.268044 333.120854 97.702235 332.526793 98.759523 331.469504 
C 99.816811 330.412216 100.410873 328.978025 100.410873 327.482794 
C 100.410873 325.987563 99.816811 324.553371 98.759523 323.496083 
C 97.702235 322.438795 96.268044 321.844733 94.772813 321.844733 
C 93.277581 321.844733 91.84339 322.438795 90.786102 323.496083 
C 89.728814 324.553371 89.134752 325.987563 89.134752 327.482794 
C 89.134752 328.978025 89.728814 330.412216 90.786102 331.469504 
C 91.84339 332.526793 93.277581 333.120854 94.772813 333.120854 
z
" clip-path="url(#p99b48c9f24)" style="fill: #def5e5; stroke: #ffffff; stroke-width: 0.7"/>
    <path d="M 97.492944 304.796975 
C 99.175547 304.796975 100.789461 304.12847 101.979241 302.93869 
C 103.16902 301.74891 103.837525 300.134996 103.837525 298.452394 
C 103.837525 296.769791 103.16902 295.155877 101.979241 293.966097 
C 100.789461 292.776318 99.175547 292.107813 97.492944 292.107813 
C 95.810342 292.107813 94.196428 292.776318 93.006648 293.966097 
C 91.816868 295.155877 91.148363 296.769791 91.148363 298.452394 
C 91.148363 300.134996 91.816868 301.74891 93.006648 302.93869 
C 94.196428 304.12847 95.810342 304.796975 97.492944 304.796975 
z
" clip-path="url(#p99b48c9f24)" style="fill: #def5e5; stroke: #ffffff; stroke-width: 0.7"/>
    <path d="M 95.201146 275.950842 
C 96.932617 275.950842 98.593404 275.262921 99.817738 274.038586 
C 101.042073 272.814252 101.729994 271.153464 101.729994 269.421994 
C 101.729994 267.690523 101.042073 266.029736 99.817738 264.805401 
C 98.593404 263.581066 96.932617 262.893146 95.201146 262.893146 
C 93.469675 262.893146 91.808888 263.581066 90.584553 264.805401 
C 89.360218 266.029736 88.672298 267.690523 88.672298 269.421994 
C 88.672298 271.153464 89.360218 272.814252 90.584553 274.038586 
C 91.808888 275.262921 93.469675 275.950842 95.201146 275.950842 
z
" clip-path="url(#p99b48c9f24)" style="fill: #def5e5; stroke: #ffffff; stroke-width: 0.7"/>
    <path d="M 94.772813 243.745696 
C 95.662331 243.745696 96.515536 243.392286 97.144521 242.763302 
C 97.773505 242.134318 98.126914 241.281112 98.126914 240.391594 
C 98.126914 239.502076 97.773505 238.64887 97.144521 238.019886 
C 96.515536 237.390901 95.662331 237.037492 94.772813 237.037492 
C 93.883294 237.037492 93.030089 237.390901 92.401104 238.019886 
C 91.77212 238.64887 91.418711 239.502076 91.418711 240.391594 
C 91.418711 241.281112 91.77212 242.134318 92.401104 242.763302 
C 93.030089 243.392286 93.883294 243.745696 94.772813 243.745696 
z
" clip-path="url(#p99b48c9f24)" style="fill: #def5e5; stroke: #ffffff; stroke-width: 0.7"/>
    <path d="M 95.181437 218.046915 
C 96.954511 218.046915 98.655203 217.342466 99.908956 216.088713 
C 101.162708 214.83496 101.867158 213.134268 101.867158 211.361194 
C 101.867158 209.58812 101.162708 207.887427 99.908956 206.633675 
C 98.655203 205.379922 96.954511 204.675472 95.181437 204.675472 
C 93.408362 204.675472 91.70767 205.379922 90.453917 206.633675 
C 89.200165 207.887427 88.495715 209.58812 88.495715 211.361194 
C 88.495715 213.134268 89.200165 214.83496 90.453917 216.088713 
C 91.70767 217.342466 93.408362 218.046915 95.181437 218.046915 
z
" clip-path="url(#p99b48c9f24)" style="fill: #d2f0db; stroke: #ffffff; stroke-width: 0.7"/>
    <path d="M 132.793322 189.12267 
C 134.594549 189.12267 136.322244 188.407035 137.595904 187.133375 
C 138.869564 185.859716 139.585199 184.13202 139.585199 182.330794 
C 139.585199 180.529567 138.869564 178.801872 137.595904 177.528212 
C 136.322244 176.254553 134.594549 175.538918 132.793322 175.538918 
C 130.992096 175.538918 129.2644 176.254553 127.990741 177.528212 
C 126.717081 178.801872 126.001446 180.529567 126.001446 182.330794 
C 126.001446 184.13202 126.717081 185.859716 127.990741 187.133375 
C 129.2644 188.407035 130.992096 189.12267 132.793322 189.12267 
z
" clip-path="url(#p99b48c9f24)" style="fill: #d0efd9; stroke: #ffffff; stroke-width: 0.7"/>
    <path d="M 98.576653 159.09043 
C 100.112188 159.09043 101.585039 158.480355 102.670826 157.394567 
C 103.756614 156.30878 104.366689 154.835929 104.366689 153.300394 
C 104.366689 151.764858 103.756614 150.292008 102.670826 149.20622 
C 101.585039 148.120433 100.112188 147.510358 98.576653 147.510358 
C 97.041117 147.510358 95.568267 148.120433 94.482479 149.20622 
C 93.396691 150.292008 92.786617 151.764858 92.786617 153.300394 
C 92.786617 154.835929 93.396691 156.30878 94.482479 157.394567 
C 95.568267 158.480355 97.041117 159.09043 98.576653 159.09043 
z
" clip-path="url(#p99b48c9f24)" style="fill: #ccedd6; stroke: #ffffff; stroke-width: 0.7"/>
    <path d="M 586.041139 131.162018 
C 587.868925 131.162018 589.622096 130.435831 590.914536 129.143391 
C 592.206976 127.850951 592.933164 126.09778 592.933164 124.269994 
C 592.933164 122.442208 592.206976 120.689037 590.914536 119.396597 
C 589.622096 118.104157 587.868925 117.377969 586.041139 117.377969 
C 584.213353 117.377969 582.460182 118.104157 581.167742 119.396597 
C 579.875302 120.689037 579.149115 122.442208 579.149115 124.269994 
C 579.149115 126.09778 579.875302 127.850951 581.167742 129.143391 
C 582.460182 130.435831 584.213353 131.162018 586.041139 131.162018 
z
" clip-path="url(#p99b48c9f24)" style="fill: #99ddb6; stroke: #ffffff; stroke-width: 0.7"/>
    <path d="M 289.06293 99.745439 
C 290.257894 99.745439 291.404077 99.270675 292.249044 98.425708 
C 293.094011 97.58074 293.568776 96.434558 293.568776 95.239594 
C 293.568776 94.04463 293.094011 92.898447 292.249044 92.05348 
C 291.404077 91.208512 290.257894 90.733748 289.06293 90.733748 
C 287.867966 90.733748 286.721783 91.208512 285.876816 92.05348 
C 285.031849 92.898447 284.557084 94.04463 284.557084 95.239594 
C 284.557084 96.434558 285.031849 97.58074 285.876816 98.425708 
C 286.721783 99.270675 287.867966 99.745439 289.06293 99.745439 
z
" clip-path="url(#p99b48c9f24)" style="fill: #3c5397; stroke: #ffffff; stroke-width: 0.7"/>
    <path d="M 679.344241 72.774698 
C 681.085433 72.774698 682.755545 72.082915 683.986754 70.851707 
C 685.217963 69.620498 685.909746 67.950386 685.909746 66.209194 
C 685.909746 64.468002 685.217963 62.79789 683.986754 61.566681 
C 682.755545 60.335472 681.085433 59.643689 679.344241 59.643689 
C 677.603049 59.643689 675.932937 60.335472 674.701728 61.566681 
C 673.47052 62.79789 672.778737 64.468002 672.778737 66.209194 
C 672.778737 67.950386 673.47052 69.620498 674.701728 70.851707 
C 675.932937 72.082915 677.603049 72.774698 679.344241 72.774698 
z
" clip-path="url(#p99b48c9f24)" style="fill: #3d5296; stroke: #ffffff; stroke-width: 0.7"/>
    <path d="M 110.747978 43.222198 
C 112.350707 43.222198 113.888009 42.585427 115.02131 41.452126 
C 116.154611 40.318825 116.791383 38.781523 116.791383 37.178794 
C 116.791383 35.576064 116.154611 34.038762 115.02131 32.905461 
C 113.888009 31.77216 112.350707 31.135389 110.747978 31.135389 
C 109.145248 31.135389 107.607946 31.77216 106.474645 32.905461 
C 105.341344 34.038762 104.704573 35.576064 104.704573 37.178794 
C 104.704573 38.781523 105.341344 40.318825 106.474645 41.452126 
C 107.607946 42.585427 109.145248 43.222198 110.747978 43.222198 
z
" clip-path="url(#p99b48c9f24)" style="fill: #0b0405; stroke: #ffffff; stroke-width: 0.7"/>
   </g>
   <g id="line2d_20"/>
   <g id="line2d_21"/>
   <g id="line2d_22"/>
   <g id="line2d_23"/>
   <g id="line2d_24"/>
   <g id="line2d_25"/>
   <g id="line2d_26"/>
   <g id="line2d_27"/>
   <g id="line2d_28"/>
   <g id="line2d_29"/>
   <g id="line2d_30"/>
   <g id="line2d_31"/>
   <g id="line2d_32"/>
   <g id="line2d_33">
    <path d="M 174.16439 341.997994 
L 174.16439 22.663594 
" clip-path="url(#p99b48c9f24)" style="fill: none; stroke-dasharray: 3.7,1.6; stroke-dashoffset: 0; stroke: #d95f02; stroke-opacity: 0.7"/>
   </g>
   <g id="patch_3">
    <path d="M 94.772813 341.997994 
L 94.772813 22.663594 
" style="fill: none; stroke: #444444; stroke-width: 1.25; stroke-linejoin: miter; stroke-linecap: square"/>
   </g>
   <g id="patch_4">
    <path d="M 94.772813 341.997994 
L 708.572813 341.997994 
" style="fill: none; stroke: #444444; stroke-width: 1.25; stroke-linejoin: miter; stroke-linecap: square"/>
   </g>
   <g id="text_22">
    <!-- PI548218 -->
    <g style="fill: #262626" transform="translate(99.772813 323.482794) scale(0.08 -0.08)">
     <use xlink:href="#ArialMT-50"/>
     <use xlink:href="#ArialMT-49" x="66.699219"/>
     <use xlink:href="#ArialMT-35" x="94.482422"/>
     <use xlink:href="#ArialMT-34" x="150.097656"/>
     <use xlink:href="#ArialMT-38" x="205.712891"/>
     <use xlink:href="#ArialMT-32" x="261.328125"/>
     <use xlink:href="#ArialMT-31" x="316.943359"/>
     <use xlink:href="#ArialMT-38" x="372.558594"/>
    </g>
   </g>
   <g id="text_23">
    <!-- PI548359 -->
    <g style="fill: #262626" transform="translate(102.492944 294.452394) scale(0.08 -0.08)">
     <defs>
      <path id="ArialMT-39" d="M 350 1059 
L 891 1109 
Q 959 728 1153 556 
Q 1347 384 1650 384 
Q 1909 384 2104 503 
Q 2300 622 2425 820 
Q 2550 1019 2634 1356 
Q 2719 1694 2719 2044 
Q 2719 2081 2716 2156 
Q 2547 1888 2255 1720 
Q 1963 1553 1622 1553 
Q 1053 1553 659 1965 
Q 266 2378 266 3053 
Q 266 3750 677 4175 
Q 1088 4600 1706 4600 
Q 2153 4600 2523 4359 
Q 2894 4119 3086 3673 
Q 3278 3228 3278 2384 
Q 3278 1506 3087 986 
Q 2897 466 2520 194 
Q 2144 -78 1638 -78 
Q 1100 -78 759 220 
Q 419 519 350 1059 
z
M 2653 3081 
Q 2653 3566 2395 3850 
Q 2138 4134 1775 4134 
Q 1400 4134 1122 3828 
Q 844 3522 844 3034 
Q 844 2597 1108 2323 
Q 1372 2050 1759 2050 
Q 2150 2050 2401 2323 
Q 2653 2597 2653 3081 
z
" transform="scale(0.015625)"/>
     </defs>
     <use xlink:href="#ArialMT-50"/>
     <use xlink:href="#ArialMT-49" x="66.699219"/>
     <use xlink:href="#ArialMT-35" x="94.482422"/>
     <use xlink:href="#ArialMT-34" x="150.097656"/>
     <use xlink:href="#ArialMT-38" x="205.712891"/>
     <use xlink:href="#ArialMT-33" x="261.328125"/>
     <use xlink:href="#ArialMT-35" x="316.943359"/>
     <use xlink:href="#ArialMT-39" x="372.558594"/>
    </g>
   </g>
   <g id="text_24">
    <!-- PI290150 -->
    <g style="fill: #262626" transform="translate(100.201146 265.421994) scale(0.08 -0.08)">
     <use xlink:href="#ArialMT-50"/>
     <use xlink:href="#ArialMT-49" x="66.699219"/>
     <use xlink:href="#ArialMT-32" x="94.482422"/>
     <use xlink:href="#ArialMT-39" x="150.097656"/>
     <use xlink:href="#ArialMT-30" x="205.712891"/>
     <use xlink:href="#ArialMT-31" x="261.328125"/>
     <use xlink:href="#ArialMT-35" x="316.943359"/>
     <use xlink:href="#ArialMT-30" x="372.558594"/>
    </g>
   </g>
   <g id="text_25">
    <!-- PI547402 -->
    <g style="fill: #262626" transform="translate(99.772813 236.391594) scale(0.08 -0.08)">
     <use xlink:href="#ArialMT-50"/>
     <use xlink:href="#ArialMT-49" x="66.699219"/>
     <use xlink:href="#ArialMT-35" x="94.482422"/>
     <use xlink:href="#ArialMT-34" x="150.097656"/>
     <use xlink:href="#ArialMT-37" x="205.712891"/>
     <use xlink:href="#ArialMT-34" x="261.328125"/>
     <use xlink:href="#ArialMT-30" x="316.943359"/>
     <use xlink:href="#ArialMT-32" x="372.558594"/>
    </g>
   </g>
   <g id="text_26">
    <!-- PI548402 -->
    <g style="fill: #262626" transform="translate(100.181437 207.361194) scale(0.08 -0.08)">
     <use xlink:href="#ArialMT-50"/>
     <use xlink:href="#ArialMT-49" x="66.699219"/>
     <use xlink:href="#ArialMT-35" x="94.482422"/>
     <use xlink:href="#ArialMT-34" x="150.097656"/>
     <use xlink:href="#ArialMT-38" x="205.712891"/>
     <use xlink:href="#ArialMT-34" x="261.328125"/>
     <use xlink:href="#ArialMT-30" x="316.943359"/>
     <use xlink:href="#ArialMT-32" x="372.558594"/>
    </g>
   </g>
   <g id="text_27">
    <!-- PI407300 -->
    <g style="fill: #262626" transform="translate(137.793322 178.330794) scale(0.08 -0.08)">
     <use xlink:href="#ArialMT-50"/>
     <use xlink:href="#ArialMT-49" x="66.699219"/>
     <use xlink:href="#ArialMT-34" x="94.482422"/>
     <use xlink:href="#ArialMT-30" x="150.097656"/>
     <use xlink:href="#ArialMT-37" x="205.712891"/>
     <use xlink:href="#ArialMT-33" x="261.328125"/>
     <use xlink:href="#ArialMT-30" x="316.943359"/>
     <use xlink:href="#ArialMT-30" x="372.558594"/>
    </g>
   </g>
   <g id="text_28">
    <!-- PI644044 -->
    <g style="fill: #262626" transform="translate(103.576653 149.300394) scale(0.08 -0.08)">
     <use xlink:href="#ArialMT-50"/>
     <use xlink:href="#ArialMT-49" x="66.699219"/>
     <use xlink:href="#ArialMT-36" x="94.482422"/>
     <use xlink:href="#ArialMT-34" x="150.097656"/>
     <use xlink:href="#ArialMT-34" x="205.712891"/>
     <use xlink:href="#ArialMT-30" x="261.328125"/>
     <use xlink:href="#ArialMT-34" x="316.943359"/>
     <use xlink:href="#ArialMT-34" x="372.558594"/>
    </g>
   </g>
   <g id="text_29">
    <!-- PI507847 -->
    <g style="fill: #262626" transform="translate(591.041139 120.269994) scale(0.08 -0.08)">
     <use xlink:href="#ArialMT-50"/>
     <use xlink:href="#ArialMT-49" x="66.699219"/>
     <use xlink:href="#ArialMT-35" x="94.482422"/>
     <use xlink:href="#ArialMT-30" x="150.097656"/>
     <use xlink:href="#ArialMT-37" x="205.712891"/>
     <use xlink:href="#ArialMT-38" x="261.328125"/>
     <use xlink:href="#ArialMT-34" x="316.943359"/>
     <use xlink:href="#ArialMT-37" x="372.558594"/>
    </g>
   </g>
   <g id="text_30">
    <!-- PI540556 -->
    <g style="fill: #262626" transform="translate(294.06293 91.239594) scale(0.08 -0.08)">
     <use xlink:href="#ArialMT-50"/>
     <use xlink:href="#ArialMT-49" x="66.699219"/>
     <use xlink:href="#ArialMT-35" x="94.482422"/>
     <use xlink:href="#ArialMT-34" x="150.097656"/>
     <use xlink:href="#ArialMT-30" x="205.712891"/>
     <use xlink:href="#ArialMT-35" x="261.328125"/>
     <use xlink:href="#ArialMT-35" x="316.943359"/>
     <use xlink:href="#ArialMT-36" x="372.558594"/>
    </g>
   </g>
   <g id="text_31">
    <!-- PI407020 -->
    <g style="fill: #262626" transform="translate(684.344241 62.209194) scale(0.08 -0.08)">
     <use xlink:href="#ArialMT-50"/>
     <use xlink:href="#ArialMT-49" x="66.699219"/>
     <use xlink:href="#ArialMT-34" x="94.482422"/>
     <use xlink:href="#ArialMT-30" x="150.097656"/>
     <use xlink:href="#ArialMT-37" x="205.712891"/>
     <use xlink:href="#ArialMT-30" x="261.328125"/>
     <use xlink:href="#ArialMT-32" x="316.943359"/>
     <use xlink:href="#ArialMT-30" x="372.558594"/>
    </g>
   </g>
   <g id="text_32">
    <!-- PI374178 -->
    <g style="fill: #262626" transform="translate(115.747978 33.178794) scale(0.08 -0.08)">
     <use xlink:href="#ArialMT-50"/>
     <use xlink:href="#ArialMT-49" x="66.699219"/>
     <use xlink:href="#ArialMT-33" x="94.482422"/>
     <use xlink:href="#ArialMT-37" x="150.097656"/>
     <use xlink:href="#ArialMT-34" x="205.712891"/>
     <use xlink:href="#ArialMT-31" x="261.328125"/>
     <use xlink:href="#ArialMT-37" x="316.943359"/>
     <use xlink:href="#ArialMT-38" x="372.558594"/>
    </g>
   </g>
   <g id="text_33">
    <!-- Separation between best and second-best hits -->
    <g style="fill: #262626" transform="translate(258.295 16.663594) scale(0.13 -0.13)">
     <defs>
      <path id="Arial-BoldMT-53" d="M 231 1491 
L 1131 1578 
Q 1213 1125 1461 912 
Q 1709 700 2131 700 
Q 2578 700 2804 889 
Q 3031 1078 3031 1331 
Q 3031 1494 2936 1608 
Q 2841 1722 2603 1806 
Q 2441 1863 1863 2006 
Q 1119 2191 819 2459 
Q 397 2838 397 3381 
Q 397 3731 595 4036 
Q 794 4341 1167 4500 
Q 1541 4659 2069 4659 
Q 2931 4659 3367 4281 
Q 3803 3903 3825 3272 
L 2900 3231 
Q 2841 3584 2645 3739 
Q 2450 3894 2059 3894 
Q 1656 3894 1428 3728 
Q 1281 3622 1281 3444 
Q 1281 3281 1419 3166 
Q 1594 3019 2269 2859 
Q 2944 2700 3267 2529 
Q 3591 2359 3773 2064 
Q 3956 1769 3956 1334 
Q 3956 941 3737 597 
Q 3519 253 3119 86 
Q 2719 -81 2122 -81 
Q 1253 -81 787 320 
Q 322 722 231 1491 
z
" transform="scale(0.015625)"/>
      <path id="Arial-BoldMT-65" d="M 2381 1056 
L 3256 909 
Q 3088 428 2723 176 
Q 2359 -75 1813 -75 
Q 947 -75 531 491 
Q 203 944 203 1634 
Q 203 2459 634 2926 
Q 1066 3394 1725 3394 
Q 2466 3394 2894 2905 
Q 3322 2416 3303 1406 
L 1103 1406 
Q 1113 1016 1316 798 
Q 1519 581 1822 581 
Q 2028 581 2168 693 
Q 2309 806 2381 1056 
z
M 2431 1944 
Q 2422 2325 2234 2523 
Q 2047 2722 1778 2722 
Q 1491 2722 1303 2513 
Q 1116 2303 1119 1944 
L 2431 1944 
z
" transform="scale(0.015625)"/>
      <path id="Arial-BoldMT-70" d="M 434 3319 
L 1253 3319 
L 1253 2831 
Q 1413 3081 1684 3237 
Q 1956 3394 2288 3394 
Q 2866 3394 3269 2941 
Q 3672 2488 3672 1678 
Q 3672 847 3265 386 
Q 2859 -75 2281 -75 
Q 2006 -75 1782 34 
Q 1559 144 1313 409 
L 1313 -1263 
L 434 -1263 
L 434 3319 
z
M 1303 1716 
Q 1303 1156 1525 889 
Q 1747 622 2066 622 
Q 2372 622 2575 867 
Q 2778 1113 2778 1672 
Q 2778 2194 2568 2447 
Q 2359 2700 2050 2700 
Q 1728 2700 1515 2451 
Q 1303 2203 1303 1716 
z
" transform="scale(0.015625)"/>
      <path id="Arial-BoldMT-61" d="M 1116 2306 
L 319 2450 
Q 453 2931 781 3162 
Q 1109 3394 1756 3394 
Q 2344 3394 2631 3255 
Q 2919 3116 3036 2902 
Q 3153 2688 3153 2116 
L 3144 1091 
Q 3144 653 3186 445 
Q 3228 238 3344 0 
L 2475 0 
Q 2441 88 2391 259 
Q 2369 338 2359 363 
Q 2134 144 1878 34 
Q 1622 -75 1331 -75 
Q 819 -75 523 203 
Q 228 481 228 906 
Q 228 1188 362 1408 
Q 497 1628 739 1745 
Q 981 1863 1438 1950 
Q 2053 2066 2291 2166 
L 2291 2253 
Q 2291 2506 2166 2614 
Q 2041 2722 1694 2722 
Q 1459 2722 1328 2630 
Q 1197 2538 1116 2306 
z
M 2291 1594 
Q 2122 1538 1756 1459 
Q 1391 1381 1278 1306 
Q 1106 1184 1106 997 
Q 1106 813 1243 678 
Q 1381 544 1594 544 
Q 1831 544 2047 700 
Q 2206 819 2256 991 
Q 2291 1103 2291 1419 
L 2291 1594 
z
" transform="scale(0.015625)"/>
      <path id="Arial-BoldMT-72" d="M 1300 0 
L 422 0 
L 422 3319 
L 1238 3319 
L 1238 2847 
Q 1447 3181 1614 3287 
Q 1781 3394 1994 3394 
Q 2294 3394 2572 3228 
L 2300 2463 
Q 2078 2606 1888 2606 
Q 1703 2606 1575 2504 
Q 1447 2403 1373 2137 
Q 1300 1872 1300 1025 
L 1300 0 
z
" transform="scale(0.015625)"/>
      <path id="Arial-BoldMT-74" d="M 1981 3319 
L 1981 2619 
L 1381 2619 
L 1381 1281 
Q 1381 875 1398 808 
Q 1416 741 1477 697 
Q 1538 653 1625 653 
Q 1747 653 1978 738 
L 2053 56 
Q 1747 -75 1359 -75 
Q 1122 -75 931 4 
Q 741 84 652 211 
Q 563 338 528 553 
Q 500 706 500 1172 
L 500 2619 
L 97 2619 
L 97 3319 
L 500 3319 
L 500 3978 
L 1381 4491 
L 1381 3319 
L 1981 3319 
z
" transform="scale(0.015625)"/>
      <path id="Arial-BoldMT-69" d="M 459 3769 
L 459 4581 
L 1338 4581 
L 1338 3769 
L 459 3769 
z
M 459 0 
L 459 3319 
L 1338 3319 
L 1338 0 
L 459 0 
z
" transform="scale(0.015625)"/>
      <path id="Arial-BoldMT-6f" d="M 256 1706 
Q 256 2144 472 2553 
Q 688 2963 1083 3178 
Q 1478 3394 1966 3394 
Q 2719 3394 3200 2905 
Q 3681 2416 3681 1669 
Q 3681 916 3195 420 
Q 2709 -75 1972 -75 
Q 1516 -75 1102 131 
Q 688 338 472 736 
Q 256 1134 256 1706 
z
M 1156 1659 
Q 1156 1166 1390 903 
Q 1625 641 1969 641 
Q 2313 641 2545 903 
Q 2778 1166 2778 1666 
Q 2778 2153 2545 2415 
Q 2313 2678 1969 2678 
Q 1625 2678 1390 2415 
Q 1156 2153 1156 1659 
z
" transform="scale(0.015625)"/>
      <path id="Arial-BoldMT-6e" d="M 3478 0 
L 2600 0 
L 2600 1694 
Q 2600 2231 2544 2389 
Q 2488 2547 2361 2634 
Q 2234 2722 2056 2722 
Q 1828 2722 1647 2597 
Q 1466 2472 1398 2265 
Q 1331 2059 1331 1503 
L 1331 0 
L 453 0 
L 453 3319 
L 1269 3319 
L 1269 2831 
Q 1703 3394 2363 3394 
Q 2653 3394 2893 3289 
Q 3134 3184 3257 3021 
Q 3381 2859 3429 2653 
Q 3478 2447 3478 2063 
L 3478 0 
z
" transform="scale(0.015625)"/>
      <path id="Arial-BoldMT-20" transform="scale(0.015625)"/>
      <path id="Arial-BoldMT-62" d="M 422 0 
L 422 4581 
L 1300 4581 
L 1300 2931 
Q 1706 3394 2263 3394 
Q 2869 3394 3266 2955 
Q 3663 2516 3663 1694 
Q 3663 844 3258 384 
Q 2853 -75 2275 -75 
Q 1991 -75 1714 67 
Q 1438 209 1238 488 
L 1238 0 
L 422 0 
z
M 1294 1731 
Q 1294 1216 1456 969 
Q 1684 619 2063 619 
Q 2353 619 2558 867 
Q 2763 1116 2763 1650 
Q 2763 2219 2556 2470 
Q 2350 2722 2028 2722 
Q 1713 2722 1503 2476 
Q 1294 2231 1294 1731 
z
" transform="scale(0.015625)"/>
      <path id="Arial-BoldMT-77" d="M 1078 0 
L 28 3319 
L 881 3319 
L 1503 1144 
L 2075 3319 
L 2922 3319 
L 3475 1144 
L 4109 3319 
L 4975 3319 
L 3909 0 
L 3066 0 
L 2494 2134 
L 1931 0 
L 1078 0 
z
" transform="scale(0.015625)"/>
      <path id="Arial-BoldMT-73" d="M 150 947 
L 1031 1081 
Q 1088 825 1259 692 
Q 1431 559 1741 559 
Q 2081 559 2253 684 
Q 2369 772 2369 919 
Q 2369 1019 2306 1084 
Q 2241 1147 2013 1200 
Q 950 1434 666 1628 
Q 272 1897 272 2375 
Q 272 2806 612 3100 
Q 953 3394 1669 3394 
Q 2350 3394 2681 3172 
Q 3013 2950 3138 2516 
L 2309 2363 
Q 2256 2556 2107 2659 
Q 1959 2763 1684 2763 
Q 1338 2763 1188 2666 
Q 1088 2597 1088 2488 
Q 1088 2394 1175 2328 
Q 1294 2241 1995 2081 
Q 2697 1922 2975 1691 
Q 3250 1456 3250 1038 
Q 3250 581 2869 253 
Q 2488 -75 1741 -75 
Q 1063 -75 667 200 
Q 272 475 150 947 
z
" transform="scale(0.015625)"/>
      <path id="Arial-BoldMT-64" d="M 3503 0 
L 2688 0 
L 2688 488 
Q 2484 203 2207 64 
Q 1931 -75 1650 -75 
Q 1078 -75 670 386 
Q 263 847 263 1672 
Q 263 2516 659 2955 
Q 1056 3394 1663 3394 
Q 2219 3394 2625 2931 
L 2625 4581 
L 3503 4581 
L 3503 0 
z
M 1159 1731 
Q 1159 1200 1306 963 
Q 1519 619 1900 619 
Q 2203 619 2415 876 
Q 2628 1134 2628 1647 
Q 2628 2219 2422 2470 
Q 2216 2722 1894 2722 
Q 1581 2722 1370 2473 
Q 1159 2225 1159 1731 
z
" transform="scale(0.015625)"/>
      <path id="Arial-BoldMT-63" d="M 3353 2338 
L 2488 2181 
Q 2444 2441 2289 2572 
Q 2134 2703 1888 2703 
Q 1559 2703 1364 2476 
Q 1169 2250 1169 1719 
Q 1169 1128 1367 884 
Q 1566 641 1900 641 
Q 2150 641 2309 783 
Q 2469 925 2534 1272 
L 3397 1125 
Q 3263 531 2881 228 
Q 2500 -75 1859 -75 
Q 1131 -75 698 384 
Q 266 844 266 1656 
Q 266 2478 700 2936 
Q 1134 3394 1875 3394 
Q 2481 3394 2839 3133 
Q 3197 2872 3353 2338 
z
" transform="scale(0.015625)"/>
      <path id="Arial-BoldMT-2d" d="M 359 1222 
L 359 2100 
L 2084 2100 
L 2084 1222 
L 359 1222 
z
" transform="scale(0.015625)"/>
      <path id="Arial-BoldMT-68" d="M 1334 4581 
L 1334 2897 
Q 1759 3394 2350 3394 
Q 2653 3394 2897 3281 
Q 3141 3169 3264 2994 
Q 3388 2819 3433 2606 
Q 3478 2394 3478 1947 
L 3478 0 
L 2600 0 
L 2600 1753 
Q 2600 2275 2550 2415 
Q 2500 2556 2373 2639 
Q 2247 2722 2056 2722 
Q 1838 2722 1666 2615 
Q 1494 2509 1414 2295 
Q 1334 2081 1334 1663 
L 1334 0 
L 456 0 
L 456 4581 
L 1334 4581 
z
" transform="scale(0.015625)"/>
     </defs>
     <use xlink:href="#Arial-BoldMT-53"/>
     <use xlink:href="#Arial-BoldMT-65" x="66.699219"/>
     <use xlink:href="#Arial-BoldMT-70" x="122.314453"/>
     <use xlink:href="#Arial-BoldMT-61" x="183.398438"/>
     <use xlink:href="#Arial-BoldMT-72" x="239.013672"/>
     <use xlink:href="#Arial-BoldMT-61" x="277.929688"/>
     <use xlink:href="#Arial-BoldMT-74" x="333.544922"/>
     <use xlink:href="#Arial-BoldMT-69" x="366.845703"/>
     <use xlink:href="#Arial-BoldMT-6f" x="394.628906"/>
     <use xlink:href="#Arial-BoldMT-6e" x="455.712891"/>
     <use xlink:href="#Arial-BoldMT-20" x="516.796875"/>
     <use xlink:href="#Arial-BoldMT-62" x="544.580078"/>
     <use xlink:href="#Arial-BoldMT-65" x="605.664062"/>
     <use xlink:href="#Arial-BoldMT-74" x="661.279297"/>
     <use xlink:href="#Arial-BoldMT-77" x="694.580078"/>
     <use xlink:href="#Arial-BoldMT-65" x="772.363281"/>
     <use xlink:href="#Arial-BoldMT-65" x="827.978516"/>
     <use xlink:href="#Arial-BoldMT-6e" x="883.59375"/>
     <use xlink:href="#Arial-BoldMT-20" x="944.677734"/>
     <use xlink:href="#Arial-BoldMT-62" x="972.460938"/>
     <use xlink:href="#Arial-BoldMT-65" x="1033.544922"/>
     <use xlink:href="#Arial-BoldMT-73" x="1089.160156"/>
     <use xlink:href="#Arial-BoldMT-74" x="1144.775391"/>
     <use xlink:href="#Arial-BoldMT-20" x="1178.076172"/>
     <use xlink:href="#Arial-BoldMT-61" x="1205.859375"/>
     <use xlink:href="#Arial-BoldMT-6e" x="1261.474609"/>
     <use xlink:href="#Arial-BoldMT-64" x="1322.558594"/>
     <use xlink:href="#Arial-BoldMT-20" x="1383.642578"/>
     <use xlink:href="#Arial-BoldMT-73" x="1411.425781"/>
     <use xlink:href="#Arial-BoldMT-65" x="1467.041016"/>
     <use xlink:href="#Arial-BoldMT-63" x="1522.65625"/>
     <use xlink:href="#Arial-BoldMT-6f" x="1578.271484"/>
     <use xlink:href="#Arial-BoldMT-6e" x="1639.355469"/>
     <use xlink:href="#Arial-BoldMT-64" x="1700.439453"/>
     <use xlink:href="#Arial-BoldMT-2d" x="1761.523438"/>
     <use xlink:href="#Arial-BoldMT-62" x="1794.824219"/>
     <use xlink:href="#Arial-BoldMT-65" x="1855.908203"/>
     <use xlink:href="#Arial-BoldMT-73" x="1911.523438"/>
     <use xlink:href="#Arial-BoldMT-74" x="1967.138672"/>
     <use xlink:href="#Arial-BoldMT-20" x="2000.439453"/>
     <use xlink:href="#Arial-BoldMT-68" x="2028.222656"/>
     <use xlink:href="#Arial-BoldMT-69" x="2089.306641"/>
     <use xlink:href="#Arial-BoldMT-74" x="2117.089844"/>
     <use xlink:href="#Arial-BoldMT-73" x="2150.390625"/>
    </g>
   </g>
   <g id="legend_1">
    <g id="text_34">
     <!-- Top match / sites -->
     <g style="fill: #262626" transform="translate(744.524406 84.300091) scale(0.12 -0.12)">
      <defs>
       <path id="ArialMT-54" d="M 1659 0 
L 1659 4041 
L 150 4041 
L 150 4581 
L 3781 4581 
L 3781 4041 
L 2266 4041 
L 2266 0 
L 1659 0 
z
" transform="scale(0.015625)"/>
       <path id="ArialMT-70" d="M 422 -1272 
L 422 3319 
L 934 3319 
L 934 2888 
Q 1116 3141 1344 3267 
Q 1572 3394 1897 3394 
Q 2322 3394 2647 3175 
Q 2972 2956 3137 2557 
Q 3303 2159 3303 1684 
Q 3303 1175 3120 767 
Q 2938 359 2589 142 
Q 2241 -75 1856 -75 
Q 1575 -75 1351 44 
Q 1128 163 984 344 
L 984 -1272 
L 422 -1272 
z
M 931 1641 
Q 931 1000 1190 694 
Q 1450 388 1819 388 
Q 2194 388 2461 705 
Q 2728 1022 2728 1688 
Q 2728 2322 2467 2637 
Q 2206 2953 1844 2953 
Q 1484 2953 1207 2617 
Q 931 2281 931 1641 
z
" transform="scale(0.015625)"/>
       <path id="ArialMT-2f" d="M 0 -78 
L 1328 4659 
L 1778 4659 
L 453 -78 
L 0 -78 
z
" transform="scale(0.015625)"/>
      </defs>
      <use xlink:href="#ArialMT-54"/>
      <use xlink:href="#ArialMT-6f" x="49.958984"/>
      <use xlink:href="#ArialMT-70" x="105.574219"/>
      <use xlink:href="#ArialMT-20" x="161.189453"/>
      <use xlink:href="#ArialMT-6d" x="188.972656"/>
      <use xlink:href="#ArialMT-61" x="272.273438"/>
      <use xlink:href="#ArialMT-74" x="327.888672"/>
      <use xlink:href="#ArialMT-63" x="355.671875"/>
      <use xlink:href="#ArialMT-68" x="405.671875"/>
      <use xlink:href="#ArialMT-20" x="461.287109"/>
      <use xlink:href="#ArialMT-2f" x="489.070312"/>
      <use xlink:href="#ArialMT-20" x="516.853516"/>
      <use xlink:href="#ArialMT-73" x="544.636719"/>
      <use xlink:href="#ArialMT-69" x="594.636719"/>
      <use xlink:href="#ArialMT-74" x="616.853516"/>
      <use xlink:href="#ArialMT-65" x="644.636719"/>
      <use xlink:href="#ArialMT-73" x="700.251953"/>
     </g>
    </g>
    <g id="line2d_34"/>
    <g id="text_35">
     <!-- top_match_fraction -->
     <g style="fill: #262626" transform="translate(755.410813 100.192747) scale(0.11 -0.11)">
      <defs>
       <path id="ArialMT-5f" d="M -97 -1272 
L -97 -866 
L 3631 -866 
L 3631 -1272 
L -97 -1272 
z
" transform="scale(0.015625)"/>
      </defs>
      <use xlink:href="#ArialMT-74"/>
      <use xlink:href="#ArialMT-6f" x="27.783203"/>
      <use xlink:href="#ArialMT-70" x="83.398438"/>
      <use xlink:href="#ArialMT-5f" x="139.013672"/>
      <use xlink:href="#ArialMT-6d" x="194.628906"/>
      <use xlink:href="#ArialMT-61" x="277.929688"/>
      <use xlink:href="#ArialMT-74" x="333.544922"/>
      <use xlink:href="#ArialMT-63" x="361.328125"/>
      <use xlink:href="#ArialMT-68" x="411.328125"/>
      <use xlink:href="#ArialMT-5f" x="466.943359"/>
      <use xlink:href="#ArialMT-66" x="522.558594"/>
      <use xlink:href="#ArialMT-72" x="550.341797"/>
      <use xlink:href="#ArialMT-61" x="583.642578"/>
      <use xlink:href="#ArialMT-63" x="639.257812"/>
      <use xlink:href="#ArialMT-74" x="689.257812"/>
      <use xlink:href="#ArialMT-69" x="717.041016"/>
      <use xlink:href="#ArialMT-6f" x="739.257812"/>
      <use xlink:href="#ArialMT-6e" x="794.873047"/>
     </g>
    </g>
    <g id="line2d_35">
     <defs>
      <path id="m14d3407483" d="M 0 3 
C 0.795609 3 1.55874 2.683901 2.12132 2.12132 
C 2.683901 1.55874 3 0.795609 3 0 
C 3 -0.795609 2.683901 -1.55874 2.12132 -2.12132 
C 1.55874 -2.683901 0.795609 -3 0 -3 
C -0.795609 -3 -1.55874 -2.683901 -2.12132 -2.12132 
C -2.683901 -1.55874 -3 -0.795609 -3 0 
C -3 0.795609 -2.683901 1.55874 -2.12132 2.12132 
C -1.55874 2.683901 -0.795609 3 0 3 
z
" style="stroke: #ffffff; stroke-width: 0.7"/>
     </defs>
     <g>
      <use xlink:href="#m14d3407483" x="735.610813" y="111.902591" style="fill: #231526; stroke: #ffffff; stroke-width: 0.7"/>
     </g>
    </g>
    <g id="text_36">
     <!-- 0.84 -->
     <g style="fill: #262626" transform="translate(755.410813 115.752591) scale(0.11 -0.11)">
      <use xlink:href="#ArialMT-30"/>
      <use xlink:href="#ArialMT-2e" x="55.615234"/>
      <use xlink:href="#ArialMT-38" x="83.398438"/>
      <use xlink:href="#ArialMT-34" x="139.013672"/>
     </g>
    </g>
    <g id="line2d_36">
     <defs>
      <path id="mafdabd56f4" d="M 0 3 
C 0.795609 3 1.55874 2.683901 2.12132 2.12132 
C 2.683901 1.55874 3 0.795609 3 0 
C 3 -0.795609 2.683901 -1.55874 2.12132 -2.12132 
C 1.55874 -2.683901 0.795609 -3 0 -3 
C -0.795609 -3 -1.55874 -2.683901 -2.12132 -2.12132 
C -2.683901 -1.55874 -3 -0.795609 -3 0 
C -3 0.795609 -2.683901 1.55874 -2.12132 2.12132 
C -1.55874 2.683901 -0.795609 3 0 3 
z
" style="stroke: #ffffff; stroke-width: 0.7"/>
     </defs>
     <g>
      <use xlink:href="#mafdabd56f4" x="735.610813" y="127.462434" style="fill: #3f3770; stroke: #ffffff; stroke-width: 0.7"/>
     </g>
    </g>
    <g id="text_37">
     <!-- 0.87 -->
     <g style="fill: #262626" transform="translate(755.410813 131.312434) scale(0.11 -0.11)">
      <use xlink:href="#ArialMT-30"/>
      <use xlink:href="#ArialMT-2e" x="55.615234"/>
      <use xlink:href="#ArialMT-38" x="83.398438"/>
      <use xlink:href="#ArialMT-37" x="139.013672"/>
     </g>
    </g>
    <g id="line2d_37">
     <defs>
      <path id="m44f6029229" d="M 0 3 
C 0.795609 3 1.55874 2.683901 2.12132 2.12132 
C 2.683901 1.55874 3 0.795609 3 0 
C 3 -0.795609 2.683901 -1.55874 2.12132 -2.12132 
C 1.55874 -2.683901 0.795609 -3 0 -3 
C -0.795609 -3 -1.55874 -2.683901 -2.12132 -2.12132 
C -2.683901 -1.55874 -3 -0.795609 -3 0 
C -3 0.795609 -2.683901 1.55874 -2.12132 2.12132 
C -1.55874 2.683901 -0.795609 3 0 3 
z
" style="stroke: #ffffff; stroke-width: 0.7"/>
     </defs>
     <g>
      <use xlink:href="#m44f6029229" x="735.610813" y="143.022278" style="fill: #37689f; stroke: #ffffff; stroke-width: 0.7"/>
     </g>
    </g>
    <g id="text_38">
     <!-- 0.90 -->
     <g style="fill: #262626" transform="translate(755.410813 146.872278) scale(0.11 -0.11)">
      <use xlink:href="#ArialMT-30"/>
      <use xlink:href="#ArialMT-2e" x="55.615234"/>
      <use xlink:href="#ArialMT-39" x="83.398438"/>
      <use xlink:href="#ArialMT-30" x="139.013672"/>
     </g>
    </g>
    <g id="line2d_38">
     <defs>
      <path id="m90fbb4d579" d="M 0 3 
C 0.795609 3 1.55874 2.683901 2.12132 2.12132 
C 2.683901 1.55874 3 0.795609 3 0 
C 3 -0.795609 2.683901 -1.55874 2.12132 -2.12132 
C 1.55874 -2.683901 0.795609 -3 0 -3 
C -0.795609 -3 -1.55874 -2.683901 -2.12132 -2.12132 
C -2.683901 -1.55874 -3 -0.795609 -3 0 
C -3 0.795609 -2.683901 1.55874 -2.12132 2.12132 
C -1.55874 2.683901 -0.795609 3 0 3 
z
" style="stroke: #ffffff; stroke-width: 0.7"/>
     </defs>
     <g>
      <use xlink:href="#m90fbb4d579" x="735.610813" y="158.582122" style="fill: #3499aa; stroke: #ffffff; stroke-width: 0.7"/>
     </g>
    </g>
    <g id="text_39">
     <!-- 0.93 -->
     <g style="fill: #262626" transform="translate(755.410813 162.432122) scale(0.11 -0.11)">
      <use xlink:href="#ArialMT-30"/>
      <use xlink:href="#ArialMT-2e" x="55.615234"/>
      <use xlink:href="#ArialMT-39" x="83.398438"/>
      <use xlink:href="#ArialMT-33" x="139.013672"/>
     </g>
    </g>
    <g id="line2d_39">
     <defs>
      <path id="m277bd52e60" d="M 0 3 
C 0.795609 3 1.55874 2.683901 2.12132 2.12132 
C 2.683901 1.55874 3 0.795609 3 0 
C 3 -0.795609 2.683901 -1.55874 2.12132 -2.12132 
C 1.55874 -2.683901 0.795609 -3 0 -3 
C -0.795609 -3 -1.55874 -2.683901 -2.12132 -2.12132 
C -2.683901 -1.55874 -3 -0.795609 -3 0 
C -3 0.795609 -2.683901 1.55874 -2.12132 2.12132 
C -1.55874 2.683901 -0.795609 3 0 3 
z
" style="stroke: #ffffff; stroke-width: 0.7"/>
     </defs>
     <g>
      <use xlink:href="#m277bd52e60" x="735.610813" y="174.141966" style="fill: #55caad; stroke: #ffffff; stroke-width: 0.7"/>
     </g>
    </g>
    <g id="text_40">
     <!-- 0.96 -->
     <g style="fill: #262626" transform="translate(755.410813 177.991966) scale(0.11 -0.11)">
      <use xlink:href="#ArialMT-30"/>
      <use xlink:href="#ArialMT-2e" x="55.615234"/>
      <use xlink:href="#ArialMT-39" x="83.398438"/>
      <use xlink:href="#ArialMT-36" x="139.013672"/>
     </g>
    </g>
    <g id="line2d_40">
     <defs>
      <path id="m15e35ec5d3" d="M 0 3 
C 0.795609 3 1.55874 2.683901 2.12132 2.12132 
C 2.683901 1.55874 3 0.795609 3 0 
C 3 -0.795609 2.683901 -1.55874 2.12132 -2.12132 
C 1.55874 -2.683901 0.795609 -3 0 -3 
C -0.795609 -3 -1.55874 -2.683901 -2.12132 -2.12132 
C -2.683901 -1.55874 -3 -0.795609 -3 0 
C -3 0.795609 -2.683901 1.55874 -2.12132 2.12132 
C -1.55874 2.683901 -0.795609 3 0 3 
z
" style="stroke: #ffffff; stroke-width: 0.7"/>
     </defs>
     <g>
      <use xlink:href="#m15e35ec5d3" x="735.610813" y="189.701809" style="fill: #c6ebd1; stroke: #ffffff; stroke-width: 0.7"/>
     </g>
    </g>
    <g id="text_41">
     <!-- 0.99 -->
     <g style="fill: #262626" transform="translate(755.410813 193.551809) scale(0.11 -0.11)">
      <use xlink:href="#ArialMT-30"/>
      <use xlink:href="#ArialMT-2e" x="55.615234"/>
      <use xlink:href="#ArialMT-39" x="83.398438"/>
      <use xlink:href="#ArialMT-39" x="139.013672"/>
     </g>
    </g>
    <g id="line2d_41"/>
    <g id="text_42">
     <!-- top_sites_compared -->
     <g style="fill: #262626" transform="translate(755.410813 209.111653) scale(0.11 -0.11)">
      <defs>
       <path id="ArialMT-64" d="M 2575 0 
L 2575 419 
Q 2259 -75 1647 -75 
Q 1250 -75 917 144 
Q 584 363 401 755 
Q 219 1147 219 1656 
Q 219 2153 384 2558 
Q 550 2963 881 3178 
Q 1213 3394 1622 3394 
Q 1922 3394 2156 3267 
Q 2391 3141 2538 2938 
L 2538 4581 
L 3097 4581 
L 3097 0 
L 2575 0 
z
M 797 1656 
Q 797 1019 1065 703 
Q 1334 388 1700 388 
Q 2069 388 2326 689 
Q 2584 991 2584 1609 
Q 2584 2291 2321 2609 
Q 2059 2928 1675 2928 
Q 1300 2928 1048 2622 
Q 797 2316 797 1656 
z
" transform="scale(0.015625)"/>
      </defs>
      <use xlink:href="#ArialMT-74"/>
      <use xlink:href="#ArialMT-6f" x="27.783203"/>
      <use xlink:href="#ArialMT-70" x="83.398438"/>
      <use xlink:href="#ArialMT-5f" x="139.013672"/>
      <use xlink:href="#ArialMT-73" x="194.628906"/>
      <use xlink:href="#ArialMT-69" x="244.628906"/>
      <use xlink:href="#ArialMT-74" x="266.845703"/>
      <use xlink:href="#ArialMT-65" x="294.628906"/>
      <use xlink:href="#ArialMT-73" x="350.244141"/>
      <use xlink:href="#ArialMT-5f" x="400.244141"/>
      <use xlink:href="#ArialMT-63" x="455.859375"/>
      <use xlink:href="#ArialMT-6f" x="505.859375"/>
      <use xlink:href="#ArialMT-6d" x="561.474609"/>
      <use xlink:href="#ArialMT-70" x="644.775391"/>
      <use xlink:href="#ArialMT-61" x="700.390625"/>
      <use xlink:href="#ArialMT-72" x="756.005859"/>
      <use xlink:href="#ArialMT-65" x="789.306641"/>
      <use xlink:href="#ArialMT-64" x="844.921875"/>
     </g>
    </g>
    <g id="line2d_42">
     <defs>
      <path id="m389d24711f" d="M 0 3.682328 
C 0.976565 3.682328 1.913263 3.294334 2.603799 2.603799 
C 3.294334 1.913263 3.682328 0.976565 3.682328 0 
C 3.682328 -0.976565 3.294334 -1.913263 2.603799 -2.603799 
C 1.913263 -3.294334 0.976565 -3.682328 0 -3.682328 
C -0.976565 -3.682328 -1.913263 -3.294334 -2.603799 -2.603799 
C -3.294334 -1.913263 -3.682328 -0.976565 -3.682328 0 
C -3.682328 0.976565 -3.294334 1.913263 -2.603799 2.603799 
C -1.913263 3.294334 -0.976565 3.682328 0 3.682328 
z
" style="stroke: #ffffff; stroke-width: 0.7"/>
     </defs>
     <g>
      <use xlink:href="#m389d24711f" x="735.610813" y="220.821497" style="fill: #333333; stroke: #ffffff; stroke-width: 0.7"/>
     </g>
    </g>
    <g id="text_43">
     <!-- 6000 -->
     <g style="fill: #262626" transform="translate(755.410813 224.671497) scale(0.11 -0.11)">
      <use xlink:href="#ArialMT-36"/>
      <use xlink:href="#ArialMT-30" x="55.615234"/>
      <use xlink:href="#ArialMT-30" x="111.230469"/>
      <use xlink:href="#ArialMT-30" x="166.845703"/>
     </g>
    </g>
    <g id="line2d_43">
     <defs>
      <path id="m12f574ab15" d="M 0 4.529456 
C 1.201226 4.529456 2.353414 4.052204 3.202809 3.202809 
C 4.052204 2.353414 4.529456 1.201226 4.529456 0 
C 4.529456 -1.201226 4.052204 -2.353414 3.202809 -3.202809 
C 2.353414 -4.052204 1.201226 -4.529456 0 -4.529456 
C -1.201226 -4.529456 -2.353414 -4.052204 -3.202809 -3.202809 
C -4.052204 -2.353414 -4.529456 -1.201226 -4.529456 0 
C -4.529456 1.201226 -4.052204 2.353414 -3.202809 3.202809 
C -2.353414 4.052204 -1.201226 4.529456 0 4.529456 
z
" style="stroke: #ffffff; stroke-width: 0.7"/>
     </defs>
     <g>
      <use xlink:href="#m12f574ab15" x="735.610813" y="236.381341" style="fill: #333333; stroke: #ffffff; stroke-width: 0.7"/>
     </g>
    </g>
    <g id="text_44">
     <!-- 9000 -->
     <g style="fill: #262626" transform="translate(755.410813 240.231341) scale(0.11 -0.11)">
      <use xlink:href="#ArialMT-39"/>
      <use xlink:href="#ArialMT-30" x="55.615234"/>
      <use xlink:href="#ArialMT-30" x="111.230469"/>
      <use xlink:href="#ArialMT-30" x="166.845703"/>
     </g>
    </g>
    <g id="line2d_44">
     <defs>
      <path id="mbac1b9e80b" d="M 0 5.241413 
C 1.390039 5.241413 2.723333 4.689145 3.706239 3.706239 
C 4.689145 2.723333 5.241413 1.390039 5.241413 0 
C 5.241413 -1.390039 4.689145 -2.723333 3.706239 -3.706239 
C 2.723333 -4.689145 1.390039 -5.241413 0 -5.241413 
C -1.390039 -5.241413 -2.723333 -4.689145 -3.706239 -3.706239 
C -4.689145 -2.723333 -5.241413 -1.390039 -5.241413 0 
C -5.241413 1.390039 -4.689145 2.723333 -3.706239 3.706239 
C -2.723333 4.689145 -1.390039 5.241413 0 5.241413 
z
" style="stroke: #ffffff; stroke-width: 0.7"/>
     </defs>
     <g>
      <use xlink:href="#mbac1b9e80b" x="735.610813" y="251.941184" style="fill: #333333; stroke: #ffffff; stroke-width: 0.7"/>
     </g>
    </g>
    <g id="text_45">
     <!-- 12000 -->
     <g style="fill: #262626" transform="translate(755.410813 255.791184) scale(0.11 -0.11)">
      <use xlink:href="#ArialMT-31"/>
      <use xlink:href="#ArialMT-32" x="55.615234"/>
      <use xlink:href="#ArialMT-30" x="111.230469"/>
      <use xlink:href="#ArialMT-30" x="166.845703"/>
      <use xlink:href="#ArialMT-30" x="222.460938"/>
     </g>
    </g>
    <g id="line2d_45">
     <defs>
      <path id="m239a218c75" d="M 0 5.86761 
C 1.556108 5.86761 3.048692 5.249362 4.149027 4.149027 
C 5.249362 3.048692 5.86761 1.556108 5.86761 0 
C 5.86761 -1.556108 5.249362 -3.048692 4.149027 -4.149027 
C 3.048692 -5.249362 1.556108 -5.86761 0 -5.86761 
C -1.556108 -5.86761 -3.048692 -5.249362 -4.149027 -4.149027 
C -5.249362 -3.048692 -5.86761 -1.556108 -5.86761 0 
C -5.86761 1.556108 -5.249362 3.048692 -4.149027 4.149027 
C -3.048692 5.249362 -1.556108 5.86761 0 5.86761 
z
" style="stroke: #ffffff; stroke-width: 0.7"/>
     </defs>
     <g>
      <use xlink:href="#m239a218c75" x="735.610813" y="267.501028" style="fill: #333333; stroke: #ffffff; stroke-width: 0.7"/>
     </g>
    </g>
    <g id="text_46">
     <!-- 15000 -->
     <g style="fill: #262626" transform="translate(755.410813 271.351028) scale(0.11 -0.11)">
      <use xlink:href="#ArialMT-31"/>
      <use xlink:href="#ArialMT-35" x="55.615234"/>
      <use xlink:href="#ArialMT-30" x="111.230469"/>
      <use xlink:href="#ArialMT-30" x="166.845703"/>
      <use xlink:href="#ArialMT-30" x="222.460938"/>
     </g>
    </g>
    <g id="line2d_46">
     <defs>
      <path id="m8c82953485" d="M 0 6.43314 
C 1.706089 6.43314 3.34253 5.755304 4.548917 4.548917 
C 5.755304 3.34253 6.43314 1.706089 6.43314 0 
C 6.43314 -1.706089 5.755304 -3.34253 4.548917 -4.548917 
C 3.34253 -5.755304 1.706089 -6.43314 0 -6.43314 
C -1.706089 -6.43314 -3.34253 -5.755304 -4.548917 -4.548917 
C -5.755304 -3.34253 -6.43314 -1.706089 -6.43314 0 
C -6.43314 1.706089 -5.755304 3.34253 -4.548917 4.548917 
C -3.34253 5.755304 -1.706089 6.43314 0 6.43314 
z
" style="stroke: #ffffff; stroke-width: 0.7"/>
     </defs>
     <g>
      <use xlink:href="#m8c82953485" x="735.610813" y="283.060872" style="fill: #333333; stroke: #ffffff; stroke-width: 0.7"/>
     </g>
    </g>
    <g id="text_47">
     <!-- 18000 -->
     <g style="fill: #262626" transform="translate(755.410813 286.910872) scale(0.11 -0.11)">
      <use xlink:href="#ArialMT-31"/>
      <use xlink:href="#ArialMT-38" x="55.615234"/>
      <use xlink:href="#ArialMT-30" x="111.230469"/>
      <use xlink:href="#ArialMT-30" x="166.845703"/>
      <use xlink:href="#ArialMT-30" x="222.460938"/>
     </g>
    </g>
   </g>
  </g>
 </g>
 <defs>
  <clipPath id="p99b48c9f24">
   <rect x="94.772813" y="22.663594" width="613.8" height="319.3344"/>
  </clipPath>
 </defs>
</svg>
